<?xml version="1.0" encoding="UTF-8"?>
<svg id="Layer_1" data-name="Layer 1" xmlns="http://www.w3.org/2000/svg" viewBox="0 0 512 512">
  <defs>
    <style>
      .cls-1, .cls-2, .cls-3, .cls-4, .cls-5 {
        stroke-width: 0px;
      }

      .cls-2, .cls-4 {
        fill: #cf2028;
      }

      .cls-3 {
        fill: #024b76;
      }

      .cls-4 {
        fill-rule: evenodd;
      }

      .cls-5 {
        fill: #fff;
      }

      .cls-6 {
        fill: none;
        stroke: #fff;
        stroke-width: .2px;
      }
    </style>
  </defs>
  <g>
    <polygon class="cls-5" points="220.24 108.28 261.24 67.34 302.22 108.28 360.17 108.28 360.17 166.14 401.19 207.13 401.02 207.31 401.17 207.5 360.17 248.41 360.17 306.3 302.09 306.3 261.21 347.27 220.24 306.29 162.26 306.29 162.26 248.43 121.26 207.5 121.45 207.29 121.29 207.13 162.25 166.17 162.25 108.28 220.24 108.28"/>
    <path class="cls-3" d="M401.19,207.13l-41.01-40.95s0,0,0-.02v-57.88h-57.95s0,0-.01,0l-40.97-40.93-41,40.94h-57.96v.37h-.03v57.55l-40.96,40.93.17.17-.2.2,40.99,40.94v57.86h57.97l41,40.97,40.97-40.97h57.98v-57.89l41-40.91-.18-.17.2-.2ZM355.2,113.25l-18.26,18.25c-7.18-7.17-15.38-13.33-24.35-18.25h42.61ZM261.22,74.2l.02.02v25.9c-10.55,0-20.74,1.54-30.38,4.38l30.35-30.31ZM166.86,113.25h.39l18.28,18.25c-7.38,7.37-13.68,15.8-18.67,25.04v-43.29ZM127.78,207.5l.37-.37h25.96c0,10.91,1.65,21.45,4.7,31.36l-31.04-30.99ZM166.86,301.71v-.33l18.67-18.64c7.54,7.53,16.21,13.95,25.71,18.97h-44.38ZM261.24,340.73v-26.62c10.89,0,21.41-1.63,31.32-4.68l-31.32,31.3ZM355.54,301.32l-18.61-18.59c7.35-7.33,13.63-15.73,18.61-24.94v43.53ZM332.74,278.73c-19.14,19.11-44.53,29.63-71.5,29.63s-52.39-10.52-71.53-29.63c-19.13-19.11-29.67-44.47-29.67-71.41,0-55.73,45.4-101.08,101.19-101.08,26.97,0,52.36,10.52,71.5,29.63,19.14,19.11,29.68,44.49,29.68,71.45s-10.54,52.3-29.67,71.41M368.35,207.13c0-10.5-1.53-20.65-4.36-30.24l30.28,30.24h-25.92Z"/>
    <path class="cls-3" d="M261.24,110.16c-53.62,0-97.24,43.59-97.24,97.16,0,25.9,10.13,50.28,28.51,68.64,18.39,18.36,42.79,28.47,68.73,28.47s50.32-10.11,68.7-28.47c18.38-18.36,28.5-42.74,28.5-68.64,0-53.57-43.61-97.16-97.21-97.16"/>
    <path class="cls-5" d="M329.5,207.32c0-37.62-30.64-68.21-68.27-68.2-37.66,0-68.28,30.58-68.28,68.2,0,37.59,30.62,68.18,68.28,68.18s68.27-30.6,68.27-68.18"/>
    <path class="cls-4" d="M307.57,173.65c-4.22,4.15-8.43,8.32-12.82,12.31-4.69-6.84-10.76-12.28-19.02-15.57-4.24-1.69-9.33-2.74-14.55-2.74s-10.24,1.03-14.56,2.74c-7.96,3.16-14.42,8.55-18.92,15.67-4.4,6.98-7.52,16.73-5.7,27.88,1.58,9.67,6.32,16.82,12.22,22.38,5.99,5.67,13.6,9.76,24.01,10.58,11.23.9,20.15-3.01,26.56-7.84,6.69-5.03,11.39-11.58,14.24-20.35h-44.06v-17.5h63.29c1.03,14.77-2.31,26.15-7.73,35.21-5.42,9.06-12.89,16.1-22.08,21.16-8.9,4.9-21.79,8.44-35.81,6.31-6.23-.95-11.54-2.81-16.48-5.19-4.73-2.27-9.19-5.21-12.92-8.64-7.61-7-13.61-15.47-16.9-26.46-1.75-5.89-2.62-12.55-2.23-19.23.37-6.47,1.71-12.56,3.76-17.8,3.84-9.82,10.32-18.24,18.62-24.63,8.15-6.26,18.72-11.18,31.85-11.8,12.21-.58,22.04,2.44,29.81,6.62,7.97,4.28,14.15,10.15,19.44,16.89"/>
    <path class="cls-5" d="M209.32,271.88l-4.94-3.99,1.5-1.92c1.11-1.38,2.14-2.02,3.07-1.92.93.1,2.45,1,4.57,2.7,1.94,1.57,3.01,2.87,3.21,3.91.2,1.04-.36,2.38-1.68,4.01-1.68,2.09-2.87,3.3-3.57,3.65-.85.42-1.69.49-2.51.21-.82-.28-2-1.04-3.52-2.27-1.99-1.61-3.13-2.83-3.42-3.66-.29-.83.07-1.86,1.07-3.1l2.15,1.74c-.46.65-.62,1.17-.46,1.55.16.38.81,1.03,1.94,1.94,1.23,1,2.12,1.5,2.66,1.5.54,0,1.2-.47,1.98-1.44l.78-.95.97-1.24c.76-.95,1.08-1.68.96-2.2-.12-.52-.77-1.27-1.97-2.23-1.16-.94-1.99-1.42-2.48-1.46-.49-.04-1.07.35-1.73,1.17l-.33.38,2.82,2.28-1.08,1.33Z"/>
    <path class="cls-6" d="M209.32,271.88l-4.94-3.99,1.5-1.92c1.11-1.38,2.14-2.02,3.07-1.92.93.1,2.45,1,4.57,2.7,1.94,1.57,3.01,2.87,3.21,3.91.2,1.04-.36,2.38-1.68,4.01-1.68,2.09-2.87,3.3-3.57,3.65-.85.42-1.69.49-2.51.21-.82-.28-2-1.04-3.52-2.27-1.99-1.61-3.13-2.83-3.42-3.66-.29-.83.07-1.86,1.07-3.1l2.15,1.74c-.46.65-.62,1.17-.46,1.55.16.38.81,1.03,1.94,1.94,1.23,1,2.12,1.5,2.66,1.5.54,0,1.2-.47,1.98-1.44l.78-.95.97-1.24c.76-.95,1.08-1.68.96-2.2-.12-.52-.77-1.27-1.97-2.23-1.16-.94-1.99-1.42-2.48-1.46-.49-.04-1.07.35-1.73,1.17l-.33.38,2.82,2.28-1.08,1.33Z"/>
    <path class="cls-5" d="M191.84,262.39l-1.77-2.08,6.2-5.28c1.3-1.1,2.41-1.54,3.33-1.31.92.23,2.15,1.25,3.69,3.07,1.63,1.91,2.5,3.34,2.61,4.27.11.93-.47,1.94-1.75,3.03l-6.31,5.37-1.77-2.08,6.31-5.37c.69-.59,1-1.1.94-1.55-.06-.45-.55-1.21-1.46-2.28-.94-1.1-1.62-1.71-2.04-1.83-.43-.12-1,.13-1.73.75l-6.24,5.31Z"/>
    <path class="cls-6" d="M191.84,262.39l-1.77-2.08,6.2-5.28c1.3-1.1,2.41-1.54,3.33-1.31.92.23,2.15,1.25,3.69,3.07,1.63,1.91,2.5,3.34,2.61,4.27.11.93-.47,1.94-1.75,3.03l-6.31,5.37-1.77-2.08,6.31-5.37c.69-.59,1-1.1.94-1.55-.06-.45-.55-1.21-1.46-2.28-.94-1.1-1.62-1.71-2.04-1.83-.43-.12-1,.13-1.73.75l-6.24,5.31Z"/>
    <polygon class="cls-5" points="186.41 250.57 195.15 245.37 196.55 247.72 187.81 252.92 189.94 256.5 188.15 257.56 182.42 247.93 184.21 246.87 186.41 250.57"/>
    <polygon class="cls-6" points="186.41 250.57 195.15 245.37 196.55 247.72 187.81 252.92 189.94 256.5 188.15 257.56 182.42 247.93 184.21 246.87 186.41 250.57"/>
    <path class="cls-5" d="M180.37,233.72l.99,2.48c-.1.05-.18.09-.23.11-.62.31-.95.64-1.01.98-.05.34.12,1.02.53,2.04.48,1.2.88,1.95,1.22,2.25.34.29.81.32,1.41.08.72-.29,1.09-.61,1.11-.96.03-.36-.26-1.4-.85-3.12-.7-2.03-.97-3.42-.81-4.16.16-.74.85-1.35,2.08-1.85,1.51-.6,2.63-.64,3.34-.13.72.51,1.54,1.94,2.47,4.28.84,2.11,1.18,3.59,1.02,4.45-.16.86-.9,1.56-2.22,2.08l-.41.18-.98-2.47.24-.11c.79-.32,1.21-.67,1.26-1.07.05-.4-.22-1.33-.8-2.79-.45-1.14-.84-1.82-1.17-2.05-.33-.23-.87-.2-1.61.1-.55.22-.87.49-.96.79-.09.31,0,.87.29,1.68l.48,1.43c.74,2.16,1.03,3.62.86,4.36-.16.74-.89,1.38-2.19,1.89-1.33.53-2.35.53-3.08,0-.72-.53-1.51-1.86-2.36-3.99-.8-2.02-1.14-3.45-1.01-4.31.13-.86.78-1.53,1.96-2l.44-.17Z"/>
    <path class="cls-6" d="M180.37,233.72l.99,2.48c-.1.05-.18.09-.23.11-.62.31-.95.64-1.01.98-.05.34.12,1.02.53,2.04.48,1.2.88,1.95,1.22,2.25.34.29.81.32,1.41.08.72-.29,1.09-.61,1.11-.96.03-.36-.26-1.4-.85-3.12-.7-2.03-.97-3.42-.81-4.16.16-.74.85-1.35,2.08-1.85,1.51-.6,2.63-.64,3.34-.13.72.51,1.54,1.94,2.47,4.28.84,2.11,1.18,3.59,1.02,4.45-.16.86-.9,1.56-2.22,2.08l-.41.18-.98-2.47.24-.11c.79-.32,1.21-.67,1.26-1.07.05-.4-.22-1.33-.8-2.79-.45-1.14-.84-1.82-1.17-2.05-.33-.23-.87-.2-1.61.1-.55.22-.87.49-.96.79-.09.31,0,.87.29,1.68l.48,1.43c.74,2.16,1.03,3.62.86,4.36-.16.74-.89,1.38-2.19,1.89-1.33.53-2.35.53-3.08,0-.72-.53-1.51-1.86-2.36-3.99-.8-2.02-1.14-3.45-1.01-4.31.13-.86.78-1.53,1.96-2l.44-.17Z"/>
    <rect class="cls-5" x="174.21" y="221.21" width="12.25" height="2.74" transform="translate(-37.98 37.1) rotate(-10.63)"/>
    <rect class="cls-6" x="174.21" y="221.21" width="12.25" height="2.74" transform="translate(-37.98 37.1) rotate(-10.63)"/>
    <path class="cls-5" d="M172.58,204.82l12.24-.57.21,4.63-6.52,4.43c-.33.22-.9.57-1.71,1.04l-.86.51-.86.49v.1s.81-.08.81-.08l.79-.07,1.6-.09,7.02-.33.13,2.73-12.24.57-.21-4.63,6.03-4.03c.53-.36,1.18-.77,1.95-1.24l.97-.6.98-.6v-.1s-.79.07-.79.07l-.79.07-1.58.09-7.05.33-.13-2.73Z"/>
    <path class="cls-6" d="M172.58,204.82l12.24-.57.21,4.63-6.52,4.43c-.33.22-.9.57-1.71,1.04l-.86.51-.86.49v.1s.81-.08.81-.08l.79-.07,1.6-.09,7.02-.33.13,2.73-12.24.57-.21-4.63,6.03-4.03c.53-.36,1.18-.77,1.95-1.24l.97-.6.98-.6v-.1s-.79.07-.79.07l-.79.07-1.58.09-7.05.33-.13-2.73Z"/>
    <path class="cls-5" d="M174.26,190.97l.42-2.86,11.46,6.36-.6,4.16-12.79,2.8.41-2.81,7.25-1.68c.7-.15,1.85-.37,3.47-.64v-.07s-.78-.39-.78-.39c-.98-.48-1.76-.89-2.35-1.21l-6.49-3.64Z"/>
    <path class="cls-6" d="M174.26,190.97l.42-2.86,11.46,6.36-.6,4.16-12.79,2.8.41-2.81,7.25-1.68c.7-.15,1.85-.37,3.47-.64v-.07s-.78-.39-.78-.39c-.98-.48-1.76-.89-2.35-1.21l-6.49-3.64Z"/>
    <polygon class="cls-5" points="178.16 183.34 181.17 184.3 183.21 177.86 184.84 178.38 182.8 184.82 186.1 185.86 188.28 179.01 190.14 179.6 187.14 189.06 175.46 185.36 178.45 175.96 180.31 176.55 178.16 183.34"/>
    <polygon class="cls-6" points="178.16 183.34 181.17 184.3 183.21 177.86 184.84 178.38 182.8 184.82 186.1 185.86 188.28 179.01 190.14 179.6 187.14 189.06 175.46 185.36 178.45 175.96 180.31 176.55 178.16 183.34"/>
    <path class="cls-5" d="M187.92,164.31l-1.2,2.39c-.11-.04-.18-.07-.24-.1-.64-.25-1.11-.29-1.4-.1-.29.19-.68.77-1.17,1.75-.58,1.16-.87,1.96-.87,2.41,0,.44.3.81.88,1.11.69.35,1.18.41,1.46.19.29-.22.87-1.12,1.76-2.71,1.06-1.88,1.91-3,2.57-3.37.66-.38,1.58-.26,2.76.33,1.46.73,2.23,1.53,2.32,2.41.09.88-.43,2.44-1.56,4.69-1.02,2.03-1.9,3.27-2.65,3.72-.75.46-1.76.36-3.04-.28l-.41-.19,1.19-2.38.24.11c.77.39,1.31.46,1.64.23.33-.23.85-1.04,1.55-2.45.55-1.1.8-1.84.76-2.25-.05-.4-.43-.78-1.14-1.14-.53-.27-.94-.33-1.23-.19-.29.14-.64.59-1.06,1.33l-.75,1.31c-1.12,1.99-2.02,3.17-2.68,3.54-.66.38-1.62.25-2.87-.38-1.28-.64-1.96-1.41-2.04-2.31-.08-.9.39-2.37,1.42-4.41.97-1.94,1.82-3.15,2.55-3.62.73-.48,1.66-.43,2.79.14l.42.21Z"/>
    <path class="cls-6" d="M187.92,164.31l-1.2,2.39c-.11-.04-.18-.07-.24-.1-.64-.25-1.11-.29-1.4-.1-.29.19-.68.77-1.17,1.75-.58,1.16-.87,1.96-.87,2.41,0,.44.3.81.88,1.11.69.35,1.18.41,1.46.19.29-.22.87-1.12,1.76-2.71,1.06-1.88,1.91-3,2.57-3.37.66-.38,1.58-.26,2.76.33,1.46.73,2.23,1.53,2.32,2.41.09.88-.43,2.44-1.56,4.69-1.02,2.03-1.9,3.27-2.65,3.72-.75.46-1.76.36-3.04-.28l-.41-.19,1.19-2.38.24.11c.77.39,1.31.46,1.64.23.33-.23.85-1.04,1.55-2.45.55-1.1.8-1.84.76-2.25-.05-.4-.43-.78-1.14-1.14-.53-.27-.94-.33-1.23-.19-.29.14-.64.59-1.06,1.33l-.75,1.31c-1.12,1.99-2.02,3.17-2.68,3.54-.66.38-1.62.25-2.87-.38-1.28-.64-1.96-1.41-2.04-2.31-.08-.9.39-2.37,1.42-4.41.97-1.94,1.82-3.15,2.55-3.62.73-.48,1.66-.43,2.79.14l.42.21Z"/>
    <polygon class="cls-5" points="192.01 155.74 200.26 161.69 198.66 163.91 190.41 157.96 187.97 161.34 186.29 160.12 192.84 151.03 194.53 152.25 192.01 155.74"/>
    <polygon class="cls-6" points="192.01 155.74 200.26 161.69 198.66 163.91 190.41 157.96 187.97 161.34 186.29 160.12 192.84 151.03 194.53 152.25 192.01 155.74"/>
    <rect class="cls-5" x="198.9" y="145.95" width="2.73" height="12.25" transform="translate(-46.91 198.31) rotate(-47.81)"/>
    <rect class="cls-6" x="198.9" y="145.95" width="2.73" height="12.25" transform="translate(-46.91 198.31) rotate(-47.81)"/>
    <path class="cls-5" d="M207.47,144.54l4.83-4.12,1.61,1.82c1.15,1.35,1.6,2.47,1.33,3.37-.26.9-1.43,2.23-3.49,4-1.9,1.62-3.37,2.43-4.43,2.44-1.06,0-2.27-.79-3.64-2.38-1.74-2.04-2.72-3.43-2.93-4.18-.26-.92-.17-1.75.26-2.51.43-.76,1.38-1.77,2.87-3.04,1.95-1.66,3.36-2.56,4.23-2.7.87-.13,1.82.41,2.85,1.62l-2.1,1.8c-.56-.58-1.04-.82-1.44-.74-.4.09-1.16.61-2.26,1.55-1.2,1.03-1.86,1.81-1.97,2.34-.1.53.24,1.27,1.05,2.21l.79.94,1.04,1.18c.79.92,1.45,1.37,1.99,1.35.54-.02,1.39-.53,2.56-1.53,1.14-.97,1.76-1.69,1.89-2.17.12-.48-.15-1.11-.83-1.91l-.32-.39-2.75,2.35-1.11-1.3Z"/>
    <path class="cls-6" d="M207.47,144.54l4.83-4.12,1.61,1.82c1.15,1.35,1.6,2.47,1.33,3.37-.26.9-1.43,2.23-3.49,4-1.9,1.62-3.37,2.43-4.43,2.44-1.06,0-2.27-.79-3.64-2.38-1.74-2.04-2.72-3.43-2.93-4.18-.26-.92-.17-1.75.26-2.51.43-.76,1.38-1.77,2.87-3.04,1.95-1.66,3.36-2.56,4.23-2.7.87-.13,1.82.41,2.85,1.62l-2.1,1.8c-.56-.58-1.04-.82-1.44-.74-.4.09-1.16.61-2.26,1.55-1.2,1.03-1.86,1.81-1.97,2.34-.1.53.24,1.27,1.05,2.21l.79.94,1.04,1.18c.79.92,1.45,1.37,1.99,1.35.54-.02,1.39-.53,2.56-1.53,1.14-.97,1.76-1.69,1.89-2.17.12-.48-.15-1.11-.83-1.91l-.32-.39-2.75,2.35-1.11-1.3Z"/>
    <path class="cls-5" d="M224.44,137.92l-5.38,3.13.41,2.48-2.5,1.46-2.02-13,3.55-2.07,10.37,8.14-2.46,1.43-1.98-1.57ZM223.03,136.75l-5.36-4.26,1.09,6.75,4.27-2.49Z"/>
    <path class="cls-6" d="M224.44,137.92l-5.38,3.13.41,2.48-2.5,1.46-2.02-13,3.55-2.07,10.37,8.14-2.46,1.43-1.98-1.57ZM223.03,136.75l-5.36-4.26,1.09,6.75,4.27-2.49Z"/>
    <polygon class="cls-5" points="231.75 126.18 235.38 135.68 232.82 136.66 229.19 127.16 225.31 128.64 224.56 126.7 235.03 122.7 235.77 124.65 231.75 126.18"/>
    <polygon class="cls-6" points="231.75 126.18 235.38 135.68 232.82 136.66 229.19 127.16 225.31 128.64 224.56 126.7 235.03 122.7 235.77 124.65 231.75 126.18"/>
    <rect class="cls-5" x="239.32" y="121.51" width="2.73" height="12.25" transform="translate(-24.37 64.64) rotate(-14.57)"/>
    <rect class="cls-6" x="239.32" y="121.51" width="2.73" height="12.25" transform="translate(-24.37 64.64) rotate(-14.57)"/>
    <path class="cls-5" d="M250.41,119.44c2.6-.33,4.32-.18,5.16.46.84.64,1.43,2.23,1.75,4.78.36,2.78.21,4.59-.45,5.41-.66.82-2.43,1.42-5.31,1.78-2.6.33-4.32.19-5.18-.43-.85-.62-1.43-2.14-1.75-4.58-.37-2.9-.23-4.76.42-5.6.65-.84,2.44-1.44,5.36-1.82M250.45,121.45c-1.82.23-2.86.57-3.12,1-.26.44-.23,1.83.07,4.19.23,1.75.54,2.77.95,3.08.4.31,1.49.35,3.25.13,1.68-.22,2.67-.55,2.95-.99.29-.44.3-1.68.04-3.71-.26-2.04-.57-3.22-.94-3.55-.37-.33-1.43-.38-3.19-.16"/>
    <path class="cls-6" d="M250.41,119.44c2.6-.33,4.32-.18,5.16.46.84.64,1.43,2.23,1.75,4.78.36,2.78.21,4.59-.45,5.41-.66.82-2.43,1.42-5.31,1.78-2.6.33-4.32.19-5.18-.43-.85-.62-1.43-2.14-1.75-4.58-.37-2.9-.23-4.76.42-5.6.65-.84,2.44-1.44,5.36-1.82ZM250.45,121.45c-1.82.23-2.86.57-3.12,1-.26.44-.23,1.83.07,4.19.23,1.75.54,2.77.95,3.08.4.31,1.49.35,3.25.13,1.68-.22,2.67-.55,2.95-.99.29-.44.3-1.68.04-3.71-.26-2.04-.57-3.22-.94-3.55-.37-.33-1.43-.38-3.19-.16Z"/>
    <path class="cls-5" d="M273.97,119.51l-.82,12.23-4.62-.31-3.66-6.99c-.18-.35-.46-.95-.84-1.82l-.4-.91-.4-.91h-.1s-.01.8-.01.8l-.02.8-.09,1.6-.47,7.01-2.73-.18.82-12.22,4.63.31,3.32,6.45c.29.57.63,1.26,1.01,2.07l.48,1.03.48,1.04h.09s.02-.78.02-.78l.02-.79.09-1.58.47-7.04,2.73.18Z"/>
    <path class="cls-6" d="M273.97,119.51l-.82,12.23-4.62-.31-3.66-6.99c-.18-.35-.46-.95-.84-1.82l-.4-.91-.4-.91h-.1s-.01.8-.01.8l-.02.8-.09,1.6-.47,7.01-2.73-.18.82-12.22,4.63.31,3.32,6.45c.29.57.63,1.26,1.01,2.07l.48,1.03.48,1.04h.09s.02-.78.02-.78l.02-.79.09-1.58.47-7.04,2.73.18Z"/>
    <path class="cls-5" d="M293.92,128.75l-2.53-.86c.02-.11.04-.19.06-.24.16-.67.13-1.14-.09-1.4-.22-.26-.85-.57-1.89-.92-1.22-.42-2.06-.6-2.5-.53-.44.07-.77.4-.98,1.02-.25.73-.25,1.22.01,1.47.25.25,1.23.71,2.92,1.38,2,.79,3.23,1.48,3.69,2.08.46.6.48,1.52.05,2.78-.52,1.54-1.21,2.42-2.07,2.63-.85.21-2.47-.09-4.86-.9-2.14-.73-3.49-1.44-4.05-2.12-.55-.68-.6-1.7-.14-3.04l.13-.43,2.52.86-.07.25c-.28.81-.28,1.36,0,1.66.27.29,1.15.7,2.63,1.2,1.16.4,1.94.54,2.33.44.39-.1.72-.53.98-1.29.19-.56.2-.97.02-1.24-.18-.27-.67-.56-1.46-.87l-1.4-.56c-2.12-.85-3.42-1.57-3.88-2.18-.46-.61-.47-1.57-.02-2.9.46-1.35,1.13-2.13,2.01-2.34.88-.2,2.4.06,4.56.8,2.05.7,3.36,1.38,3.94,2.03.57.66.65,1.59.24,2.79l-.15.44Z"/>
    <path class="cls-6" d="M293.92,128.75l-2.53-.86c.02-.11.04-.19.06-.24.16-.67.13-1.14-.09-1.4-.22-.26-.85-.57-1.89-.92-1.22-.42-2.06-.6-2.5-.53-.44.07-.77.4-.98,1.02-.25.73-.25,1.22.01,1.47.25.25,1.23.71,2.92,1.38,2,.79,3.23,1.48,3.69,2.08.46.6.48,1.52.05,2.78-.52,1.54-1.21,2.42-2.07,2.63-.85.21-2.47-.09-4.86-.9-2.14-.73-3.49-1.44-4.05-2.12-.55-.68-.6-1.7-.14-3.04l.13-.43,2.52.86-.07.25c-.28.81-.28,1.36,0,1.66.27.29,1.15.7,2.63,1.2,1.16.4,1.94.54,2.33.44.39-.1.72-.53.98-1.29.19-.56.2-.97.02-1.24-.18-.27-.67-.56-1.46-.87l-1.4-.56c-2.12-.85-3.42-1.57-3.88-2.18-.46-.61-.47-1.57-.02-2.9.46-1.35,1.13-2.13,2.01-2.34.88-.2,2.4.06,4.56.8,2.05.7,3.36,1.38,3.94,2.03.57.66.65,1.59.24,2.79l-.15.44Z"/>
    <polygon class="cls-5" points="300.07 129.94 298.6 132.74 304.57 135.9 303.77 137.41 297.79 134.25 296.18 137.31 302.53 140.68 301.62 142.41 292.84 137.76 298.57 126.93 307.29 131.55 306.38 133.28 300.07 129.94"/>
    <polygon class="cls-6" points="300.07 129.94 298.6 132.74 304.57 135.9 303.77 137.41 297.79 134.25 296.18 137.31 302.53 140.68 301.62 142.41 292.84 137.76 298.57 126.93 307.29 131.55 306.38 133.28 300.07 129.94"/>
    <path class="cls-5" d="M313.04,145.36l2.18,1.66-.26.34c-1.03,1.36-1.99,2.01-2.88,1.97-.88-.05-2.33-.83-4.32-2.35-2.26-1.72-3.42-3.1-3.46-4.12-.04-1.03.98-2.9,3.06-5.64,1.23-1.61,2.38-2.4,3.47-2.37,1.09.03,2.76.9,5.01,2.61,1.64,1.24,2.57,2.28,2.8,3.12.23.83-.12,1.87-1.07,3.11l-.16.23-2.18-1.66.19-.25c.49-.64.66-1.15.51-1.55-.15-.39-.72-.97-1.73-1.74-1.35-1.03-2.27-1.5-2.75-1.43-.49.08-1.26.81-2.31,2.19-1.42,1.87-2.14,3.07-2.16,3.59-.02.53.64,1.3,1.97,2.32,1.08.82,1.86,1.26,2.32,1.32.47.05.95-.24,1.44-.89l.32-.45Z"/>
    <path class="cls-6" d="M313.04,145.36l2.18,1.66-.26.34c-1.03,1.36-1.99,2.01-2.88,1.97-.88-.05-2.33-.83-4.32-2.35-2.26-1.72-3.42-3.1-3.46-4.12-.04-1.03.98-2.9,3.06-5.64,1.23-1.61,2.38-2.4,3.47-2.37,1.09.03,2.76.9,5.01,2.61,1.64,1.24,2.57,2.28,2.8,3.12.23.83-.12,1.87-1.07,3.11l-.16.23-2.18-1.66.19-.25c.49-.64.66-1.15.51-1.55-.15-.39-.72-.97-1.73-1.74-1.35-1.03-2.27-1.5-2.75-1.43-.49.08-1.26.81-2.31,2.19-1.42,1.87-2.14,3.07-2.16,3.59-.02.53.64,1.3,1.97,2.32,1.08.82,1.86,1.26,2.32,1.32.47.05.95-.24,1.44-.89l.32-.45Z"/>
    <path class="cls-5" d="M329.06,150.23l1.84,2.02-6.03,5.48c-1.26,1.15-2.36,1.62-3.28,1.42-.93-.2-2.19-1.18-3.79-2.94-1.69-1.86-2.61-3.26-2.75-4.18-.14-.93.41-1.96,1.65-3.09l6.13-5.57,1.84,2.02-6.13,5.57c-.67.61-.97,1.13-.89,1.58.08.44.59,1.19,1.54,2.23.97,1.07,1.67,1.66,2.1,1.76.43.11,1-.16,1.71-.8l6.06-5.51Z"/>
    <path class="cls-6" d="M329.06,150.23l1.84,2.02-6.03,5.48c-1.26,1.15-2.36,1.62-3.28,1.42-.93-.2-2.19-1.18-3.79-2.94-1.69-1.86-2.61-3.26-2.75-4.18-.14-.93.41-1.96,1.65-3.09l6.13-5.57,1.84,2.02-6.13,5.57c-.67.61-.97,1.13-.89,1.58.08.44.59,1.19,1.54,2.23.97,1.07,1.67,1.66,2.1,1.76.43.11,1-.16,1.71-.8l6.06-5.51Z"/>
    <path class="cls-5" d="M323.24,162.42l10.42-6.44,3.74,6.05c.93,1.5,1.35,2.68,1.26,3.52-.09.84-.71,1.62-1.88,2.34-1.06.65-1.86.95-2.43.91-.56-.04-1.19-.46-1.88-1.25l-.07.04c.77,1.4.52,2.5-.76,3.29l-2.3,1.42-1.44-2.33,1.9-1.17c1.08-.66,1.23-1.62.46-2.86l-2.07-3.35-3.51,2.17-1.44-2.33ZM329.86,161.55l2.06,3.34c.49.8.94,1.25,1.34,1.36.4.11.97-.06,1.7-.51.74-.46,1.15-.87,1.23-1.23.08-.36-.12-.92-.59-1.68l-2.17-3.5-3.58,2.21Z"/>
    <path class="cls-6" d="M323.24,162.42l10.42-6.44,3.74,6.05c.93,1.5,1.35,2.68,1.26,3.52-.09.84-.71,1.62-1.88,2.34-1.06.65-1.86.95-2.43.91-.56-.04-1.19-.46-1.88-1.25l-.07.04c.77,1.4.52,2.5-.76,3.29l-2.3,1.42-1.44-2.33,1.9-1.17c1.08-.66,1.23-1.62.46-2.86l-2.07-3.35-3.51,2.17-1.44-2.33ZM329.86,161.55l2.06,3.34c.49.8.94,1.25,1.34,1.36.4.11.97-.06,1.7-.51.74-.46,1.15-.87,1.23-1.23.08-.36-.12-.92-.59-1.68l-2.17-3.5-3.58,2.21Z"/>
    <rect class="cls-5" x="330.23" y="171.86" width="12.25" height="2.73" transform="translate(-41.55 155.1) rotate(-24.5)"/>
    <rect class="cls-6" x="330.23" y="171.86" width="12.25" height="2.73" transform="translate(-41.55 155.1) rotate(-24.5)"/>
    <polygon class="cls-5" points="343.93 181.72 334.27 184.89 333.42 182.29 343.08 179.12 341.78 175.16 343.76 174.51 347.25 185.16 345.27 185.81 343.93 181.72"/>
    <polygon class="cls-6" points="343.93 181.72 334.27 184.89 333.42 182.29 343.08 179.12 341.78 175.16 343.76 174.51 347.25 185.16 345.27 185.81 343.93 181.72"/>
    <path class="cls-5" d="M349.88,200.16l-8.32-4.09-4.62.73-.43-2.7,4.62-.73,6.67-6.32.5,3.13-2.85,2.65c-.16.15-.46.4-.89.76l-.44.38-.44.37v.07s.55.22.55.22l.54.23c.48.19.84.34,1.08.46l3.54,1.66.5,3.17Z"/>
    <path class="cls-6" d="M349.88,200.16l-8.32-4.09-4.62.73-.43-2.7,4.62-.73,6.67-6.32.5,3.13-2.85,2.65c-.16.15-.46.4-.89.76l-.44.38-.44.37v.07s.55.22.55.22l.54.23c.48.19.84.34,1.08.46l3.54,1.66.5,3.17Z"/>
    <path class="cls-5" d="M343.84,215.06l-.59,6.32-2.43-.18c-1.76-.16-2.86-.66-3.3-1.49-.44-.83-.53-2.6-.27-5.3.23-2.48.72-4.09,1.48-4.84.76-.74,2.18-1.02,4.27-.82,2.67.25,4.34.57,5.01.96.82.48,1.34,1.14,1.56,1.98.22.84.24,2.23.06,4.18-.24,2.55-.62,4.18-1.16,4.88-.53.7-1.59.97-3.17.83l.26-2.75c.8.02,1.32-.13,1.55-.48.23-.34.41-1.24.55-2.69.15-1.58.07-2.59-.22-3.05-.29-.46-1.06-.74-2.29-.86l-1.22-.12-1.57-.12c-1.21-.11-2,.02-2.37.42-.37.39-.62,1.35-.77,2.88-.14,1.48-.09,2.44.15,2.87.24.43.88.69,1.93.79l.5.06.34-3.61,1.71.16Z"/>
    <path class="cls-6" d="M343.84,215.06l-.59,6.32-2.43-.18c-1.76-.16-2.86-.66-3.3-1.49-.44-.83-.53-2.6-.27-5.3.23-2.48.72-4.09,1.48-4.84.76-.74,2.18-1.02,4.27-.82,2.67.25,4.34.57,5.01.96.82.48,1.34,1.14,1.56,1.98.22.84.24,2.23.06,4.18-.24,2.55-.62,4.18-1.16,4.88-.53.7-1.59.97-3.17.83l.26-2.75c.8.02,1.32-.13,1.55-.48.23-.34.41-1.24.55-2.69.15-1.58.07-2.59-.22-3.05-.29-.46-1.06-.74-2.29-.86l-1.22-.12-1.57-.12c-1.21-.11-2,.02-2.37.42-.37.39-.62,1.35-.77,2.88-.14,1.48-.09,2.44.15,2.87.24.43.88.69,1.93.79l.5.06.34-3.61,1.71.16Z"/>
    <path class="cls-5" d="M345.62,234.86l-.75,2.63-7.84-2.24c-1.64-.47-2.62-1.15-2.93-2.04-.32-.89-.15-2.48.51-4.77.69-2.42,1.4-3.93,2.11-4.54.72-.61,1.88-.68,3.49-.22l7.97,2.28-.76,2.63-7.96-2.28c-.87-.25-1.47-.22-1.81.08-.34.3-.7,1.12-1.09,2.48-.4,1.39-.53,2.29-.4,2.72.13.42.66.76,1.58,1.03l7.88,2.26Z"/>
    <path class="cls-6" d="M345.62,234.86l-.75,2.63-7.84-2.24c-1.64-.47-2.62-1.15-2.93-2.04-.32-.89-.15-2.48.51-4.77.69-2.42,1.4-3.93,2.11-4.54.72-.61,1.88-.68,3.49-.22l7.97,2.28-.76,2.63-7.96-2.28c-.87-.25-1.47-.22-1.81.08-.34.3-.7,1.12-1.09,2.48-.4,1.39-.53,2.29-.4,2.72.13.42.66.76,1.58,1.03l7.88,2.26Z"/>
    <path class="cls-5" d="M330.41,245.22l2.76-5.57-1.71-1.85,1.29-2.59,8.85,9.73-1.82,3.68-13.14-1.08,1.26-2.55,2.52.22ZM332.23,245.41l6.83.6-4.63-5.03-2.19,4.43Z"/>
    <path class="cls-6" d="M330.41,245.22l2.76-5.57-1.71-1.85,1.29-2.59,8.85,9.73-1.82,3.68-13.14-1.08,1.26-2.55,2.52.22ZM332.23,245.41l6.83.6-4.63-5.03-2.19,4.43Z"/>
    <path class="cls-5" d="M325.96,248.45l9.83,7.31-4.24,5.7c-1.06,1.42-1.99,2.24-2.81,2.47-.82.23-1.77-.07-2.87-.88-.99-.74-1.57-1.38-1.74-1.92-.17-.54-.01-1.28.47-2.21l-.06-.05c-1.02,1.23-2.14,1.4-3.34.5l-2.17-1.61,1.63-2.2,1.79,1.34c1.01.75,1.96.54,2.83-.63l2.35-3.16-3.31-2.47,1.63-2.19ZM329.21,254.28l-2.34,3.15c-.56.75-.82,1.33-.77,1.75.04.42.41.88,1.1,1.39.7.52,1.23.75,1.59.69.36-.06.81-.45,1.34-1.17l2.46-3.3-3.38-2.51Z"/>
    <path class="cls-6" d="M325.96,248.45l9.83,7.31-4.24,5.7c-1.06,1.42-1.99,2.24-2.81,2.47-.82.23-1.77-.07-2.87-.88-.99-.74-1.57-1.38-1.74-1.92-.17-.54-.01-1.28.47-2.21l-.06-.05c-1.02,1.23-2.14,1.4-3.34.5l-2.17-1.61,1.63-2.2,1.79,1.34c1.01.75,1.96.54,2.83-.63l2.35-3.16-3.31-2.47,1.63-2.19ZM329.21,254.28l-2.34,3.15c-.56.75-.82,1.33-.77,1.75.04.42.41.88,1.1,1.39.7.52,1.23.75,1.59.69.36-.06.81-.45,1.34-1.17l2.46-3.3-3.38-2.51Z"/>
    <path class="cls-5" d="M317.55,259.42l8.31,9.01-5.21,4.8c-1.48,1.36-2.77,2.05-3.87,2.04-1.1,0-2.29-.69-3.55-2.07-2.07-2.25-3.17-3.91-3.28-4.99-.11-1.08.67-2.39,2.34-3.93l5.27-4.86ZM316.87,262.72l-2.87,2.64c-.96.89-1.41,1.65-1.35,2.28.07.64.69,1.6,1.88,2.88,1.23,1.33,2.13,2.06,2.72,2.18.59.13,1.35-.24,2.28-1.11l2.99-2.76-5.65-6.13Z"/>
    <path class="cls-6" d="M317.55,259.42l8.31,9.01-5.21,4.8c-1.48,1.36-2.77,2.05-3.87,2.04-1.1,0-2.29-.69-3.55-2.07-2.07-2.25-3.17-3.91-3.28-4.99-.11-1.08.67-2.39,2.34-3.93l5.27-4.86ZM316.87,262.72l-2.87,2.64c-.96.89-1.41,1.65-1.35,2.28.07.64.69,1.6,1.88,2.88,1.23,1.33,2.13,2.06,2.72,2.18.59.13,1.35-.24,2.28-1.11l2.99-2.76-5.65-6.13Z"/>
    <path class="cls-5" d="M296.36,280.19l-2.42,1.3-.2-.37c-.8-1.5-1-2.65-.59-3.43.41-.79,1.72-1.77,3.93-2.95,2.51-1.34,4.24-1.82,5.19-1.43.95.39,2.24,2.1,3.85,5.12.95,1.79,1.19,3.17.71,4.15-.48.98-1.97,2.14-4.46,3.47-1.81.97-3.15,1.38-4,1.25-.86-.14-1.65-.89-2.38-2.26l-.14-.24,2.42-1.29.15.28c.38.71.78,1.08,1.2,1.11.42.03,1.19-.25,2.31-.85,1.49-.8,2.31-1.44,2.45-1.91.13-.47-.21-1.48-1.03-3.01-1.11-2.07-1.9-3.22-2.37-3.46-.47-.24-1.45.04-2.93.83-1.2.64-1.92,1.16-2.16,1.57-.24.4-.18.96.21,1.68l.28.47Z"/>
    <path class="cls-6" d="M296.36,280.19l-2.42,1.3-.2-.37c-.8-1.5-1-2.65-.59-3.43.41-.79,1.72-1.77,3.93-2.95,2.51-1.34,4.24-1.82,5.19-1.43.95.39,2.24,2.1,3.85,5.12.95,1.79,1.19,3.17.71,4.15-.48.98-1.97,2.14-4.46,3.47-1.81.97-3.15,1.38-4,1.25-.86-.14-1.65-.89-2.38-2.26l-.14-.24,2.42-1.29.15.28c.38.71.78,1.08,1.2,1.11.42.03,1.19-.25,2.31-.85,1.49-.8,2.31-1.44,2.45-1.91.13-.47-.21-1.48-1.03-3.01-1.11-2.07-1.9-3.22-2.37-3.46-.47-.24-1.45.04-2.93.83-1.2.64-1.92,1.16-2.16,1.57-.24.4-.18.96.21,1.68l.28.47Z"/>
    <path class="cls-5" d="M288.51,291.83c-2.49.81-4.21.98-5.15.51-.95-.47-1.81-1.92-2.61-4.37-.87-2.67-1.05-4.47-.56-5.4.49-.93,2.12-1.84,4.89-2.74,2.49-.81,4.21-.99,5.16-.54.95.45,1.81,1.84,2.57,4.17.9,2.78,1.11,4.64.63,5.58-.49.94-2.13,1.87-4.93,2.78M288.09,289.87c1.75-.57,2.71-1.09,2.88-1.57.17-.48-.11-1.84-.85-4.1-.54-1.67-1.04-2.62-1.5-2.85-.46-.23-1.53-.07-3.21.48-1.61.53-2.52,1.03-2.71,1.52-.2.49.02,1.71.65,3.65.64,1.95,1.16,3.06,1.58,3.31.42.26,1.47.11,3.16-.44"/>
    <path class="cls-6" d="M288.51,291.83c-2.49.81-4.21.98-5.15.51-.95-.47-1.81-1.92-2.61-4.37-.87-2.67-1.05-4.47-.56-5.4.49-.93,2.12-1.84,4.89-2.74,2.49-.81,4.21-.99,5.16-.54.95.45,1.81,1.84,2.57,4.17.9,2.78,1.11,4.64.63,5.58-.49.94-2.13,1.87-4.93,2.78ZM288.09,289.87c1.75-.57,2.71-1.09,2.88-1.57.17-.48-.11-1.84-.85-4.1-.54-1.67-1.04-2.62-1.5-2.85-.46-.23-1.53-.07-3.21.48-1.61.53-2.52,1.03-2.71,1.52-.2.49.02,1.71.65,3.65.64,1.95,1.16,3.06,1.58,3.31.42.26,1.47.11,3.16-.44Z"/>
    <rect class="cls-5" x="274.84" y="282.33" width="2.42" height="2.21" transform="translate(-48.89 57.71) rotate(-10.97)"/>
    <rect class="cls-6" x="274.84" y="282.33" width="2.42" height="2.21" transform="translate(-48.89 57.71) rotate(-10.97)"/>
    <path class="cls-5" d="M270.11,285.47l-.27-2.12c-.18-1.42.44-2.22,1.88-2.41.08,0,.23-.02.44-.04l.12.95c-.77.1-1.12.42-1.05.97l.05.27.94-.12.28,2.19-2.4.31Z"/>
    <path class="cls-6" d="M270.11,285.47l-.27-2.12c-.18-1.42.44-2.22,1.88-2.41.08,0,.23-.02.44-.04l.12.95c-.77.1-1.12.42-1.05.97l.05.27.94-.12.28,2.19-2.4.31Z"/>
    <polygon class="cls-5" points="263.05 296 263.02 285.83 256.27 285.85 256.26 283.77 265.75 283.74 265.79 295.99 263.05 296"/>
    <polygon class="cls-6" points="263.05 296 263.02 285.83 256.27 285.85 256.26 283.77 265.75 283.74 265.79 295.99 263.05 296"/>
    <polygon class="cls-5" points="247.78 292.85 249.23 282.79 251.94 283.18 250.49 293.24 254.61 293.84 254.31 295.9 243.22 294.3 243.51 292.24 247.78 292.85"/>
    <polygon class="cls-6" points="247.78 292.85 249.23 282.79 251.94 283.18 250.49 293.24 254.61 293.84 254.31 295.9 243.22 294.3 243.51 292.24 247.78 292.85"/>
    <path class="cls-5" d="M243.69,281.9l-3.77,11.66-6.74-2.18c-1.91-.62-3.14-1.41-3.68-2.37-.54-.96-.52-2.33.06-4.11.94-2.91,1.85-4.68,2.74-5.31.88-.63,2.41-.59,4.57.1l6.82,2.2ZM240.48,282.93l-3.71-1.2c-1.24-.4-2.13-.42-2.65-.05-.52.37-1.05,1.38-1.59,3.05-.56,1.72-.74,2.87-.57,3.44.18.57.88,1.05,2.09,1.45l3.87,1.25,2.56-7.94Z"/>
    <path class="cls-6" d="M243.69,281.9l-3.77,11.66-6.74-2.18c-1.91-.62-3.14-1.41-3.68-2.37-.54-.96-.52-2.33.06-4.11.94-2.91,1.85-4.68,2.74-5.31.88-.63,2.41-.59,4.57.1l6.82,2.2ZM240.48,282.93l-3.71-1.2c-1.24-.4-2.13-.42-2.65-.05-.52.37-1.05,1.38-1.59,3.05-.56,1.72-.74,2.87-.57,3.44.18.57.88,1.05,2.09,1.45l3.87,1.25,2.56-7.94Z"/>
    <rect class="cls-5" x="227.49" y="276.35" width="2.21" height="2.42" transform="translate(-119.56 367.44) rotate(-65)"/>
    <rect class="cls-6" x="227.49" y="276.35" width="2.21" height="2.42" transform="translate(-119.56 367.44) rotate(-65)"/>
  </g>
  <g>
    <path class="cls-3" d="M46.12,448.93c-2.87-1.54-5.1-3.71-6.71-6.53-1.6-2.82-2.41-6.08-2.41-9.81s.8-7,2.41-9.83c1.6-2.83,3.84-5.02,6.71-6.55,2.87-1.54,6.14-2.3,9.83-2.3,4.95,0,9.06,1.23,12.34,3.69v5.02c-2.97-2.59-6.93-3.89-11.88-3.89-2.7,0-5.12.56-7.27,1.69-2.15,1.13-3.83,2.74-5.04,4.84-1.21,2.1-1.82,4.55-1.82,7.35s.6,5.26,1.79,7.37c1.19,2.12,2.85,3.74,4.97,4.86,2.12,1.13,4.51,1.69,7.17,1.69,3.11,0,5.65-.63,7.63-1.89v-9.37h-6.81v-4.25h12.03v16.39c-1.6,1.33-3.49,2.3-5.66,2.92-2.17.61-4.65.92-7.45.92-3.69,0-6.96-.77-9.83-2.3Z"/>
    <path class="cls-3" d="M78.17,447.47c-2.49-2.51-3.74-5.97-3.74-10.37v-22.43h5.22v22.63c0,3.04.85,5.33,2.56,6.89s4.05,2.33,7.02,2.33,5.26-.78,6.96-2.33,2.56-3.85,2.56-6.89v-22.63h5.22v22.43c0,4.37-1.25,7.82-3.74,10.34s-6.16,3.79-11.01,3.79-8.57-1.25-11.06-3.76Z"/>
    <path class="cls-3" d="M119.44,419.08h-11.11v-4.4h27.5v4.4h-11.11v31.39h-5.27v-31.39Z"/>
    <path class="cls-3" d="M143.02,450.7c-2-.36-3.63-.84-4.89-1.46v-4.71c3.28,1.54,6.81,2.3,10.6,2.3,5.32,0,7.99-1.79,7.99-5.38,0-1.23-.29-2.22-.87-2.97-.58-.75-1.42-1.41-2.51-1.97-1.09-.56-2.87-1.34-5.33-2.33-3.38-1.37-5.82-2.87-7.32-4.51-1.5-1.64-2.25-3.7-2.25-6.2,0-1.88.51-3.54,1.54-4.99s2.46-2.58,4.3-3.38,3.96-1.2,6.35-1.2c1.95,0,3.7.15,5.27.46,1.57.31,3.11.8,4.61,1.48v4.51c-2.97-1.33-5.97-2-9.01-2-2.46,0-4.34.44-5.63,1.33-1.3.89-1.95,2.15-1.95,3.79,0,1.13.28,2.07.84,2.84s1.4,1.45,2.51,2.05c1.11.6,2.76,1.34,4.94,2.23,2.42.99,4.33,1.93,5.73,2.82,1.4.89,2.47,1.97,3.2,3.25.73,1.28,1.1,2.88,1.1,4.79,0,3.11-1.11,5.51-3.33,7.22-2.22,1.71-5.5,2.56-9.83,2.56-2.05,0-4.07-.18-6.07-.54Z"/>
    <path class="cls-3" d="M185.8,433.11h16.33v4.25h-16.33v-4.25Z"/>
    <path class="cls-2" d="M226.71,414.67h23.6v4.4h-18.38v11.32h13.72v4.35h-13.72v11.37h18.38v4.35h-23.6v-35.79Z"/>
    <path class="cls-2" d="M259.56,450.7c-2-.36-3.63-.84-4.89-1.46v-4.71c3.28,1.54,6.81,2.3,10.6,2.3,5.33,0,7.99-1.79,7.99-5.38,0-1.23-.29-2.22-.87-2.97-.58-.75-1.42-1.41-2.51-1.97-1.09-.56-2.87-1.34-5.33-2.33-3.38-1.37-5.82-2.87-7.32-4.51s-2.25-3.7-2.25-6.2c0-1.88.51-3.54,1.54-4.99s2.46-2.58,4.3-3.38c1.84-.8,3.96-1.2,6.35-1.2,1.95,0,3.7.15,5.27.46,1.57.31,3.11.8,4.61,1.48v4.51c-2.97-1.33-5.97-2-9.01-2-2.46,0-4.34.44-5.63,1.33-1.3.89-1.95,2.15-1.95,3.79,0,1.13.28,2.07.84,2.84s1.4,1.45,2.51,2.05c1.11.6,2.76,1.34,4.94,2.23,2.42.99,4.33,1.93,5.73,2.82,1.4.89,2.47,1.97,3.2,3.25.73,1.28,1.1,2.88,1.1,4.79,0,3.11-1.11,5.51-3.33,7.22-2.22,1.71-5.5,2.56-9.83,2.56-2.05,0-4.07-.18-6.07-.54Z"/>
    <path class="cls-2" d="M286.49,450.7c-2-.36-3.63-.84-4.89-1.46v-4.71c3.28,1.54,6.81,2.3,10.6,2.3,5.33,0,7.99-1.79,7.99-5.38,0-1.23-.29-2.22-.87-2.97-.58-.75-1.42-1.41-2.51-1.97-1.09-.56-2.87-1.34-5.33-2.33-3.38-1.37-5.82-2.87-7.32-4.51s-2.25-3.7-2.25-6.2c0-1.88.51-3.54,1.54-4.99s2.46-2.58,4.3-3.38c1.84-.8,3.96-1.2,6.35-1.2,1.95,0,3.7.15,5.27.46,1.57.31,3.11.8,4.61,1.48v4.51c-2.97-1.33-5.97-2-9.01-2-2.46,0-4.34.44-5.63,1.33-1.3.89-1.95,2.15-1.95,3.79,0,1.13.28,2.07.84,2.84s1.4,1.45,2.51,2.05c1.11.6,2.76,1.34,4.94,2.23,2.42.99,4.33,1.93,5.73,2.82,1.4.89,2.47,1.97,3.2,3.25.73,1.28,1.1,2.88,1.1,4.79,0,3.11-1.11,5.51-3.33,7.22-2.22,1.71-5.5,2.56-9.83,2.56-2.05,0-4.07-.18-6.07-.54Z"/>
    <path class="cls-1" d="M331.22,449.13c-1.3-3.82-1.95-7.99-1.95-12.49s.65-8.63,1.95-12.47c1.3-3.84,3.17-7.26,5.63-10.27h5.48c-2.59,3.31-4.54,6.83-5.84,10.55-1.3,3.72-1.95,7.78-1.95,12.19s.65,8.47,1.95,12.19,3.24,7.24,5.84,10.55h-5.48c-2.46-3-4.33-6.42-5.63-10.24Z"/>
    <path class="cls-1" d="M356.26,419.08h-11.11v-4.4h27.5v4.4h-11.11v31.39h-5.27v-31.39Z"/>
    <path class="cls-1" d="M377.25,414.67h23.6v4.4h-18.38v11.32h13.72v4.35h-13.72v11.37h18.38v4.35h-23.6v-35.79Z"/>
    <path class="cls-1" d="M410.1,450.7c-2-.36-3.63-.84-4.89-1.46v-4.71c3.28,1.54,6.81,2.3,10.6,2.3,5.33,0,7.99-1.79,7.99-5.38,0-1.23-.29-2.22-.87-2.97-.58-.75-1.42-1.41-2.51-1.97-1.09-.56-2.87-1.34-5.33-2.33-3.38-1.37-5.82-2.87-7.32-4.51s-2.25-3.7-2.25-6.2c0-1.88.51-3.54,1.54-4.99s2.46-2.58,4.3-3.38c1.84-.8,3.96-1.2,6.35-1.2,1.95,0,3.7.15,5.27.46,1.57.31,3.11.8,4.61,1.48v4.51c-2.97-1.33-5.97-2-9.01-2-2.46,0-4.34.44-5.63,1.33-1.3.89-1.95,2.15-1.95,3.79,0,1.13.28,2.07.84,2.84s1.4,1.45,2.51,2.05c1.11.6,2.76,1.34,4.94,2.23,2.42.99,4.33,1.93,5.73,2.82,1.4.89,2.47,1.97,3.2,3.25.73,1.28,1.1,2.88,1.1,4.79,0,3.11-1.11,5.51-3.33,7.22-2.22,1.71-5.5,2.56-9.83,2.56-2.05,0-4.07-.18-6.07-.54Z"/>
    <path class="cls-1" d="M442.74,419.08h-11.11v-4.4h27.5v4.4h-11.11v31.39h-5.27v-31.39Z"/>
    <path class="cls-1" d="M467.78,448.83c1.3-3.72,1.95-7.78,1.95-12.19s-.65-8.47-1.95-12.19c-1.3-3.72-3.24-7.24-5.84-10.55h5.48c2.46,3,4.33,6.43,5.63,10.27,1.3,3.84,1.94,8,1.94,12.47s-.65,8.67-1.94,12.49c-1.3,3.82-3.18,7.24-5.63,10.24h-5.48c2.59-3.31,4.54-6.83,5.84-10.55Z"/>
  </g>
</svg>