<?xml version="1.0" encoding="UTF-8"?>
<svg id="Layer_1" data-name="Layer 1" xmlns="http://www.w3.org/2000/svg" viewBox="0 0 1170 595.28">
  <defs>
    <style>
      .cls-1, .cls-2, .cls-3, .cls-4, .cls-5 {
        stroke-width: 0px;
      }

      .cls-1, .cls-4 {
        fill: #cf2028;
      }

      .cls-2, .cls-6 {
        fill: none;
      }

      .cls-3 {
        fill: #024b76;
      }

      .cls-4 {
        fill-rule: evenodd;
      }

      .cls-5 {
        fill: #fff;
      }

      .cls-6 {
        stroke: #fff;
        stroke-width: .2px;
      }
    </style>
  </defs>
  <path class="cls-3" d="M524.55,191.85l-26.76,40.77c-.42,0-12.65,0-13.07.01-16.04.32-28.76,6.7-38.33,18.55-5.06,6.12-9.26,11.28-12.2,19.76-2.91,8.44-4.35,16.83-4.35,25.08,0,14.5,3.88,26.7,11.66,36.63,4.67,5.84,10.6,10.43,17.79,13.79,7.19,3.35,14.83,5.02,22.9,5.02,10.9,0,20.27-2.85,28.16-8.52,7.89-5.7,12.91-13.25,15.04-22.69h-46.27l4.96-39.83h95.73c-.38,20.9-3.66,39.29-9.78,55.13-7.79,20.42-21.2,35.89-40.27,46.41-15.66,8.75-33.17,13.14-52.53,13.14-27.73,0-50.63-8.19-68.72-24.54-20.33-18.27-30.48-42.82-30.48-73.68,0-18.58,4.08-35.92,12.26-52.06,10.01-19.86,25.48-33.87,44.83-43.89,15.46-8.06,32.98-9.12,52.52-9.12l36.9.03"/>
  <polygon class="cls-3" points="894.82 232.63 875.71 394.91 825.2 394.91 844.49 232.63 801.57 232.63 806.96 191.86 942.08 191.86 936.7 232.63 894.82 232.63"/>
  <path class="cls-3" d="M896.88,395.17l5.27-40.7c8.06-.25,90.51-.27,97.33-.27,8.16,0,14.66-1.93,19.54-5.73,4.67-3.73,7-8.34,7-13.87,0-4.4-1.56-8.08-4.67-11.08-3.11-3.02-9.31-8.81-18.53-13.39-14.78-7.23-25.38-13.86-31.81-19.86-9.62-8.95-14.45-21.21-14.45-36.77,0-19.82,8.47-35.7,25.4-47.61,13.23-9.24,29.17-14.03,47.86-14.03h68.01l-5.32,41.21h-61.82c-6.82,0-12.23,1.51-16.29,4.56-4.03,3.06-6.06,7.21-6.06,12.44,0,4.68,1.71,8.58,5.11,11.74,3.42,3.13,10.13,6.99,20.12,11.58,13.71,6.28,23.9,12.64,30.51,19.01,9.16,8.67,13.69,20.49,14.56,35.63.92,16.02-6.38,35.82-21.87,47.75-14.99,11.55-32.23,19.33-55.01,19.33-11.94,0-93.3.05-104.9.05"/>
  <path class="cls-3" d="M784.76,191.85l-14.15,115.26c-2.82,23.64-6.51,40.13-11.09,49.48-7.02,14.57-18.92,25.03-35.74,31.37-12.76,4.85-27.36,7.28-43.92,7.28-24.7,0-44.02-5.2-57.92-15.62-7.57-5.62-13.53-12.84-17.78-21.59-4.88-9.93-7.3-20.23-7.3-30.94,0-6.31.71-15.51,2.2-27.58l8.28-66.89h-21.72l26.76-40.77h50.29l-13.14,107.66c-.76,6.14-1.16,11.72-1.16,16.78,0,20.73,11.04,31.08,33.12,31.08,12.64,0,22.07-3.35,28.3-10.07,3.01-3.29,5.28-7.22,6.78-11.74,1.51-4.52,2.78-11.2,3.86-20.06l13.86-113.65h50.5Z"/>
  <polygon class="cls-1" points="585.59 232.63 612.36 191.86 590.21 191.86 563.43 232.63 585.59 232.63"/>
  <polygon class="cls-1" points="541.99 232.63 568.75 191.86 546.6 191.86 519.84 232.63 541.99 232.63"/>
  <polygon class="cls-5" points="170.98 197.71 211.98 156.78 252.96 197.71 310.91 197.71 310.91 255.57 351.93 296.57 351.76 296.74 351.91 296.93 310.91 337.85 310.91 395.73 252.83 395.73 211.95 436.71 170.97 395.73 113 395.73 113 337.87 72 296.93 72.19 296.72 72.03 296.57 112.99 255.61 112.99 197.71 170.98 197.71"/>
  <path class="cls-3" d="M351.93,296.57l-41.01-40.95s0,0,0-.02v-57.88h-57.95s0,0-.01,0l-40.97-40.93-41,40.94h-57.96v.37h-.03v57.55l-40.96,40.93.17.17-.2.2,40.99,40.94v57.86h57.97l41,40.97,40.97-40.97h57.98v-57.89l41-40.91-.18-.17.2-.2ZM305.93,202.69l-18.26,18.25c-7.18-7.17-15.38-13.33-24.35-18.25h42.61ZM211.96,163.64l.02.02v25.9c-10.55,0-20.74,1.54-30.38,4.38l30.35-30.31ZM117.6,202.69h.39l18.28,18.25c-7.38,7.37-13.68,15.8-18.67,25.04v-43.29ZM78.52,296.93l.37-.37h25.96c0,10.91,1.65,21.45,4.7,31.36l-31.04-30.99ZM117.6,391.15v-.33l18.67-18.64c7.54,7.53,16.21,13.95,25.71,18.97h-44.38ZM211.98,430.17v-26.62c10.89,0,21.41-1.63,31.32-4.68l-31.32,31.3ZM306.28,390.76l-18.61-18.59c7.35-7.33,13.63-15.73,18.61-24.94v43.53ZM283.47,368.17c-19.14,19.11-44.53,29.63-71.5,29.63s-52.39-10.52-71.53-29.63c-19.13-19.11-29.67-44.47-29.67-71.41,0-55.73,45.4-101.08,101.19-101.08,26.97,0,52.36,10.52,71.5,29.63,19.14,19.11,29.68,44.49,29.68,71.45s-10.54,52.3-29.67,71.41M319.08,296.57c0-10.5-1.53-20.65-4.36-30.24l30.28,30.24h-25.92Z"/>
  <path class="cls-3" d="M211.98,199.6c-53.62,0-97.24,43.59-97.24,97.16,0,25.9,10.13,50.28,28.51,68.64,18.39,18.36,42.79,28.47,68.73,28.47s50.32-10.11,68.7-28.47c18.38-18.36,28.5-42.74,28.5-68.64,0-53.57-43.61-97.16-97.21-97.16"/>
  <path class="cls-5" d="M280.24,296.75c0-37.62-30.64-68.21-68.27-68.2-37.66,0-68.28,30.58-68.28,68.2,0,37.59,30.62,68.18,68.28,68.18s68.27-30.6,68.27-68.18"/>
  <path class="cls-4" d="M258.31,263.09c-4.22,4.15-8.43,8.32-12.82,12.31-4.69-6.84-10.76-12.28-19.02-15.57-4.24-1.69-9.33-2.74-14.55-2.74s-10.24,1.03-14.56,2.74c-7.96,3.16-14.42,8.55-18.92,15.67-4.4,6.98-7.52,16.73-5.7,27.88,1.58,9.67,6.32,16.82,12.22,22.38,5.99,5.67,13.6,9.76,24.01,10.58,11.23.9,20.15-3.01,26.56-7.84,6.69-5.03,11.39-11.58,14.24-20.35h-44.06v-17.5h63.29c1.03,14.77-2.31,26.15-7.73,35.21-5.42,9.06-12.89,16.1-22.08,21.16-8.9,4.9-21.79,8.44-35.81,6.31-6.23-.95-11.54-2.81-16.48-5.19-4.73-2.27-9.19-5.21-12.92-8.64-7.61-7-13.61-15.47-16.9-26.46-1.75-5.89-2.62-12.55-2.23-19.23.37-6.47,1.71-12.56,3.76-17.8,3.84-9.82,10.32-18.24,18.62-24.63,8.15-6.26,18.72-11.18,31.85-11.8,12.21-.58,22.04,2.44,29.81,6.62,7.97,4.28,14.15,10.15,19.44,16.89"/>
  <path class="cls-5" d="M160.06,361.31l-4.94-3.99,1.5-1.92c1.11-1.38,2.14-2.02,3.07-1.92.93.1,2.45,1,4.57,2.7,1.94,1.57,3.01,2.87,3.21,3.91.2,1.04-.36,2.38-1.68,4.01-1.68,2.09-2.87,3.3-3.57,3.65-.85.42-1.69.49-2.51.21-.82-.28-2-1.04-3.52-2.27-1.99-1.61-3.13-2.83-3.42-3.66-.29-.83.07-1.86,1.07-3.1l2.15,1.74c-.46.65-.62,1.17-.46,1.55.16.38.81,1.03,1.94,1.94,1.23,1,2.12,1.5,2.66,1.5.54,0,1.2-.47,1.98-1.44l.78-.95.97-1.24c.76-.95,1.08-1.68.96-2.2-.12-.52-.77-1.27-1.97-2.23-1.16-.94-1.99-1.42-2.48-1.46-.49-.04-1.07.35-1.73,1.17l-.33.38,2.82,2.28-1.08,1.33Z"/>
  <path class="cls-6" d="M160.06,361.31l-4.94-3.99,1.5-1.92c1.11-1.38,2.14-2.02,3.07-1.92.93.1,2.45,1,4.57,2.7,1.94,1.57,3.01,2.87,3.21,3.91.2,1.04-.36,2.38-1.68,4.01-1.68,2.09-2.87,3.3-3.57,3.65-.85.42-1.69.49-2.51.21-.82-.28-2-1.04-3.52-2.27-1.99-1.61-3.13-2.83-3.42-3.66-.29-.83.07-1.86,1.07-3.1l2.15,1.74c-.46.65-.62,1.17-.46,1.55.16.38.81,1.03,1.94,1.94,1.23,1,2.12,1.5,2.66,1.5.54,0,1.2-.47,1.98-1.44l.78-.95.97-1.24c.76-.95,1.08-1.68.96-2.2-.12-.52-.77-1.27-1.97-2.23-1.16-.94-1.99-1.42-2.48-1.46-.49-.04-1.07.35-1.73,1.17l-.33.38,2.82,2.28-1.08,1.33Z"/>
  <path class="cls-5" d="M142.58,351.83l-1.77-2.08,6.2-5.28c1.3-1.1,2.41-1.54,3.33-1.31.92.23,2.15,1.25,3.69,3.07,1.63,1.91,2.5,3.34,2.61,4.27.11.93-.47,1.94-1.75,3.03l-6.31,5.37-1.77-2.08,6.31-5.37c.69-.59,1-1.1.94-1.55-.06-.45-.55-1.21-1.46-2.28-.94-1.1-1.62-1.71-2.04-1.83-.43-.12-1,.13-1.73.75l-6.24,5.31Z"/>
  <path class="cls-6" d="M142.58,351.83l-1.77-2.08,6.2-5.28c1.3-1.1,2.41-1.54,3.33-1.31.92.23,2.15,1.25,3.69,3.07,1.63,1.91,2.5,3.34,2.61,4.27.11.93-.47,1.94-1.75,3.03l-6.31,5.37-1.77-2.08,6.31-5.37c.69-.59,1-1.1.94-1.55-.06-.45-.55-1.21-1.46-2.28-.94-1.1-1.62-1.71-2.04-1.83-.43-.12-1,.13-1.73.75l-6.24,5.31Z"/>
  <polygon class="cls-5" points="137.15 340.01 145.89 334.81 147.29 337.16 138.55 342.36 140.68 345.94 138.89 347 133.16 337.37 134.95 336.31 137.15 340.01"/>
  <polygon class="cls-6" points="137.15 340.01 145.89 334.81 147.29 337.16 138.55 342.36 140.68 345.94 138.89 347 133.16 337.37 134.95 336.31 137.15 340.01"/>
  <path class="cls-5" d="M131.1,323.15l.99,2.48c-.1.05-.18.09-.23.11-.62.31-.95.64-1.01.98-.05.34.12,1.02.53,2.04.48,1.2.88,1.95,1.22,2.25.34.29.81.32,1.41.08.72-.29,1.09-.61,1.11-.96.03-.36-.26-1.4-.85-3.12-.7-2.03-.97-3.42-.81-4.16.16-.74.85-1.35,2.08-1.85,1.51-.6,2.63-.64,3.34-.13.72.51,1.54,1.94,2.47,4.28.84,2.11,1.18,3.59,1.02,4.45-.16.86-.9,1.56-2.22,2.08l-.41.18-.98-2.47.24-.11c.79-.32,1.21-.67,1.26-1.07.05-.4-.22-1.33-.8-2.79-.45-1.14-.84-1.82-1.17-2.05-.33-.23-.87-.2-1.61.1-.55.22-.87.49-.96.79-.09.31,0,.87.29,1.68l.48,1.43c.74,2.16,1.03,3.62.86,4.36-.16.74-.89,1.38-2.19,1.89-1.33.53-2.35.53-3.08,0-.72-.53-1.51-1.86-2.36-3.99-.8-2.02-1.14-3.45-1.01-4.31.13-.86.78-1.53,1.96-2l.44-.17Z"/>
  <path class="cls-6" d="M131.1,323.15l.99,2.48c-.1.05-.18.09-.23.11-.62.31-.95.64-1.01.98-.05.34.12,1.02.53,2.04.48,1.2.88,1.95,1.22,2.25.34.29.81.32,1.41.08.72-.29,1.09-.61,1.11-.96.03-.36-.26-1.4-.85-3.12-.7-2.03-.97-3.42-.81-4.16.16-.74.85-1.35,2.08-1.85,1.51-.6,2.63-.64,3.34-.13.72.51,1.54,1.94,2.47,4.28.84,2.11,1.18,3.59,1.02,4.45-.16.86-.9,1.56-2.22,2.08l-.41.18-.98-2.47.24-.11c.79-.32,1.21-.67,1.26-1.07.05-.4-.22-1.33-.8-2.79-.45-1.14-.84-1.82-1.17-2.05-.33-.23-.87-.2-1.61.1-.55.22-.87.49-.96.79-.09.31,0,.87.29,1.68l.48,1.43c.74,2.16,1.03,3.62.86,4.36-.16.74-.89,1.38-2.19,1.89-1.33.53-2.35.53-3.08,0-.72-.53-1.51-1.86-2.36-3.99-.8-2.02-1.14-3.45-1.01-4.31.13-.86.78-1.53,1.96-2l.44-.17Z"/>
  <rect class="cls-5" x="124.94" y="310.65" width="12.25" height="2.74" transform="translate(-55.33 29.55) rotate(-10.63)"/>
  <rect class="cls-6" x="124.94" y="310.65" width="12.25" height="2.74" transform="translate(-55.33 29.55) rotate(-10.63)"/>
  <path class="cls-5" d="M123.31,294.25l12.24-.57.21,4.63-6.52,4.43c-.33.22-.9.57-1.71,1.04l-.86.51-.86.49v.1s.81-.08.81-.08l.79-.07,1.6-.09,7.02-.33.13,2.73-12.24.57-.21-4.63,6.03-4.03c.53-.36,1.18-.77,1.95-1.24l.97-.6.98-.6v-.1s-.79.07-.79.07l-.79.07-1.58.09-7.05.33-.13-2.73Z"/>
  <path class="cls-6" d="M123.31,294.25l12.24-.57.21,4.63-6.52,4.43c-.33.22-.9.57-1.71,1.04l-.86.51-.86.49v.1s.81-.08.81-.08l.79-.07,1.6-.09,7.02-.33.13,2.73-12.24.57-.21-4.63,6.03-4.03c.53-.36,1.18-.77,1.95-1.24l.97-.6.98-.6v-.1s-.79.07-.79.07l-.79.07-1.58.09-7.05.33-.13-2.73Z"/>
  <path class="cls-5" d="M124.99,280.41l.42-2.86,11.46,6.36-.6,4.16-12.79,2.8.41-2.81,7.25-1.68c.7-.15,1.85-.37,3.47-.64v-.07s-.78-.39-.78-.39c-.98-.48-1.76-.89-2.35-1.21l-6.49-3.64Z"/>
  <path class="cls-6" d="M124.99,280.41l.42-2.86,11.46,6.36-.6,4.16-12.79,2.8.41-2.81,7.25-1.68c.7-.15,1.85-.37,3.47-.64v-.07s-.78-.39-.78-.39c-.98-.48-1.76-.89-2.35-1.21l-6.49-3.64Z"/>
  <polygon class="cls-5" points="128.89 272.78 131.9 273.74 133.95 267.29 135.58 267.81 133.54 274.25 136.84 275.3 139.02 268.45 140.88 269.04 137.88 278.5 126.2 274.8 129.18 265.39 131.05 265.99 128.89 272.78"/>
  <polygon class="cls-6" points="128.89 272.78 131.9 273.74 133.95 267.29 135.58 267.81 133.54 274.25 136.84 275.3 139.02 268.45 140.88 269.04 137.88 278.5 126.2 274.8 129.18 265.39 131.05 265.99 128.89 272.78"/>
  <path class="cls-5" d="M138.66,253.75l-1.2,2.39c-.11-.04-.18-.07-.24-.1-.64-.25-1.11-.29-1.4-.1-.29.19-.68.77-1.17,1.75-.58,1.16-.87,1.96-.87,2.41,0,.44.3.81.88,1.11.69.35,1.18.41,1.46.19.29-.22.87-1.12,1.76-2.71,1.06-1.88,1.91-3,2.57-3.37.66-.38,1.58-.26,2.76.33,1.46.73,2.23,1.53,2.32,2.41.09.88-.43,2.44-1.56,4.69-1.02,2.03-1.9,3.27-2.65,3.72-.75.46-1.76.36-3.04-.28l-.41-.19,1.19-2.38.24.11c.77.39,1.31.46,1.64.23.33-.23.85-1.04,1.55-2.45.55-1.1.8-1.84.76-2.25-.05-.4-.43-.78-1.14-1.14-.53-.27-.94-.33-1.23-.19-.29.14-.64.59-1.06,1.33l-.75,1.31c-1.12,1.99-2.02,3.17-2.68,3.54-.66.38-1.62.25-2.87-.38-1.28-.64-1.96-1.41-2.04-2.31-.08-.9.39-2.37,1.42-4.41.97-1.94,1.82-3.15,2.55-3.62.73-.48,1.66-.43,2.79.14l.42.21Z"/>
  <path class="cls-6" d="M138.66,253.75l-1.2,2.39c-.11-.04-.18-.07-.24-.1-.64-.25-1.11-.29-1.4-.1-.29.19-.68.77-1.17,1.75-.58,1.16-.87,1.96-.87,2.41,0,.44.3.81.88,1.11.69.35,1.18.41,1.46.19.29-.22.87-1.12,1.76-2.71,1.06-1.88,1.91-3,2.57-3.37.66-.38,1.58-.26,2.76.33,1.46.73,2.23,1.53,2.32,2.41.09.88-.43,2.44-1.56,4.69-1.02,2.03-1.9,3.27-2.65,3.72-.75.46-1.76.36-3.04-.28l-.41-.19,1.19-2.38.24.11c.77.39,1.31.46,1.64.23.33-.23.85-1.04,1.55-2.45.55-1.1.8-1.84.76-2.25-.05-.4-.43-.78-1.14-1.14-.53-.27-.94-.33-1.23-.19-.29.14-.64.59-1.06,1.33l-.75,1.31c-1.12,1.99-2.02,3.17-2.68,3.54-.66.38-1.62.25-2.87-.38-1.28-.64-1.96-1.41-2.04-2.31-.08-.9.39-2.37,1.42-4.41.97-1.94,1.82-3.15,2.55-3.62.73-.48,1.66-.43,2.79.14l.42.21Z"/>
  <polygon class="cls-5" points="142.75 245.18 151 251.13 149.4 253.35 141.15 247.4 138.71 250.77 137.02 249.56 143.58 240.47 145.27 241.69 142.75 245.18"/>
  <polygon class="cls-6" points="142.75 245.18 151 251.13 149.4 253.35 141.15 247.4 138.71 250.77 137.02 249.56 143.58 240.47 145.27 241.69 142.75 245.18"/>
  <rect class="cls-5" x="149.64" y="235.38" width="2.73" height="12.25" transform="translate(-129.34 191.18) rotate(-47.81)"/>
  <rect class="cls-6" x="149.64" y="235.38" width="2.73" height="12.25" transform="translate(-129.34 191.18) rotate(-47.81)"/>
  <path class="cls-5" d="M158.2,233.98l4.83-4.12,1.61,1.82c1.15,1.35,1.6,2.47,1.33,3.37-.26.9-1.43,2.23-3.49,4-1.9,1.62-3.37,2.43-4.43,2.44-1.06,0-2.27-.79-3.64-2.38-1.74-2.04-2.72-3.43-2.93-4.18-.26-.92-.17-1.75.26-2.51.43-.76,1.38-1.77,2.87-3.04,1.95-1.66,3.36-2.56,4.23-2.7.87-.13,1.82.41,2.85,1.62l-2.1,1.8c-.56-.58-1.04-.82-1.44-.74-.4.09-1.16.61-2.26,1.55-1.2,1.03-1.86,1.81-1.97,2.34-.1.53.24,1.27,1.05,2.21l.79.94,1.04,1.18c.79.92,1.45,1.37,1.99,1.35.54-.02,1.39-.53,2.56-1.53,1.14-.97,1.76-1.69,1.89-2.17.12-.48-.15-1.11-.83-1.91l-.32-.39-2.75,2.35-1.11-1.3Z"/>
  <path class="cls-6" d="M158.2,233.98l4.83-4.12,1.61,1.82c1.15,1.35,1.6,2.47,1.33,3.37-.26.9-1.43,2.23-3.49,4-1.9,1.62-3.37,2.43-4.43,2.44-1.06,0-2.27-.79-3.64-2.38-1.74-2.04-2.72-3.43-2.93-4.18-.26-.92-.17-1.75.26-2.51.43-.76,1.38-1.77,2.87-3.04,1.95-1.66,3.36-2.56,4.23-2.7.87-.13,1.82.41,2.85,1.62l-2.1,1.8c-.56-.58-1.04-.82-1.44-.74-.4.09-1.16.61-2.26,1.55-1.2,1.03-1.86,1.81-1.97,2.34-.1.53.24,1.27,1.05,2.21l.79.94,1.04,1.18c.79.92,1.45,1.37,1.99,1.35.54-.02,1.39-.53,2.56-1.53,1.14-.97,1.76-1.69,1.89-2.17.12-.48-.15-1.11-.83-1.91l-.32-.39-2.75,2.35-1.11-1.3Z"/>
  <path class="cls-5" d="M175.18,227.35l-5.38,3.13.41,2.48-2.5,1.46-2.02-13,3.55-2.07,10.37,8.14-2.46,1.43-1.98-1.57ZM173.77,226.19l-5.36-4.26,1.09,6.75,4.27-2.49Z"/>
  <path class="cls-6" d="M175.18,227.35l-5.38,3.13.41,2.48-2.5,1.46-2.02-13,3.55-2.07,10.37,8.14-2.46,1.43-1.98-1.57ZM173.77,226.19l-5.36-4.26,1.09,6.75,4.27-2.49Z"/>
  <polygon class="cls-5" points="182.49 215.62 186.11 225.12 183.56 226.1 179.93 216.6 176.05 218.08 175.3 216.14 185.77 212.14 186.51 214.09 182.49 215.62"/>
  <polygon class="cls-6" points="182.49 215.62 186.11 225.12 183.56 226.1 179.93 216.6 176.05 218.08 175.3 216.14 185.77 212.14 186.51 214.09 182.49 215.62"/>
  <rect class="cls-5" x="190.06" y="210.95" width="2.73" height="12.25" transform="translate(-48.44 55.12) rotate(-14.57)"/>
  <rect class="cls-6" x="190.06" y="210.95" width="2.73" height="12.25" transform="translate(-48.44 55.12) rotate(-14.57)"/>
  <path class="cls-5" d="M201.15,208.88c2.6-.33,4.32-.18,5.16.46.84.64,1.43,2.23,1.75,4.78.36,2.78.21,4.59-.45,5.41-.66.82-2.43,1.42-5.31,1.78-2.6.33-4.32.19-5.18-.43-.85-.62-1.43-2.14-1.75-4.58-.37-2.9-.23-4.76.42-5.6.65-.84,2.44-1.44,5.36-1.82M201.19,210.88c-1.82.23-2.86.57-3.12,1-.26.44-.23,1.83.07,4.19.23,1.75.54,2.77.95,3.08.4.31,1.49.35,3.25.13,1.68-.22,2.67-.55,2.95-.99.29-.44.3-1.68.04-3.71-.26-2.04-.57-3.22-.94-3.55-.37-.33-1.43-.38-3.19-.16"/>
  <path class="cls-6" d="M201.15,208.88c2.6-.33,4.32-.18,5.16.46.84.64,1.43,2.23,1.75,4.78.36,2.78.21,4.59-.45,5.41-.66.82-2.43,1.42-5.31,1.78-2.6.33-4.32.19-5.18-.43-.85-.62-1.43-2.14-1.75-4.58-.37-2.9-.23-4.76.42-5.6.65-.84,2.44-1.44,5.36-1.82ZM201.19,210.88c-1.82.23-2.86.57-3.12,1-.26.44-.23,1.83.07,4.19.23,1.75.54,2.77.95,3.08.4.31,1.49.35,3.25.13,1.68-.22,2.67-.55,2.95-.99.29-.44.3-1.68.04-3.71-.26-2.04-.57-3.22-.94-3.55-.37-.33-1.43-.38-3.19-.16Z"/>
  <path class="cls-5" d="M224.71,208.95l-.82,12.23-4.62-.31-3.66-6.99c-.18-.35-.46-.95-.84-1.82l-.4-.91-.4-.91h-.1s-.01.8-.01.8l-.02.8-.09,1.6-.47,7.01-2.73-.18.82-12.22,4.63.31,3.32,6.45c.29.57.63,1.26,1.01,2.07l.48,1.03.48,1.04h.09s.02-.78.02-.78l.02-.79.09-1.58.47-7.04,2.73.18Z"/>
  <path class="cls-6" d="M224.71,208.95l-.82,12.23-4.62-.31-3.66-6.99c-.18-.35-.46-.95-.84-1.82l-.4-.91-.4-.91h-.1s-.01.8-.01.8l-.02.8-.09,1.6-.47,7.01-2.73-.18.82-12.22,4.63.31,3.32,6.45c.29.57.63,1.26,1.01,2.07l.48,1.03.48,1.04h.09s.02-.78.02-.78l.02-.79.09-1.58.47-7.04,2.73.18Z"/>
  <path class="cls-5" d="M244.66,218.19l-2.53-.86c.02-.11.04-.19.06-.24.16-.67.13-1.14-.09-1.4-.22-.26-.85-.57-1.89-.92-1.22-.42-2.06-.6-2.5-.53-.44.07-.77.4-.98,1.02-.25.73-.25,1.22.01,1.47.25.25,1.23.71,2.92,1.38,2,.79,3.23,1.48,3.69,2.08.46.6.48,1.52.05,2.78-.52,1.54-1.21,2.42-2.07,2.63-.85.21-2.47-.09-4.86-.9-2.14-.73-3.49-1.44-4.05-2.12-.55-.68-.6-1.7-.14-3.04l.13-.43,2.52.86-.07.25c-.28.81-.28,1.36,0,1.66.27.29,1.15.7,2.63,1.2,1.16.4,1.94.54,2.33.44.39-.1.72-.53.98-1.29.19-.56.2-.97.02-1.24-.18-.27-.67-.56-1.46-.87l-1.4-.56c-2.12-.85-3.42-1.57-3.88-2.18-.46-.61-.47-1.57-.02-2.9.46-1.35,1.13-2.13,2.01-2.34.88-.2,2.4.06,4.56.8,2.05.7,3.36,1.38,3.94,2.03.57.66.65,1.59.24,2.79l-.15.44Z"/>
  <path class="cls-6" d="M244.66,218.19l-2.53-.86c.02-.11.04-.19.06-.24.16-.67.13-1.14-.09-1.4-.22-.26-.85-.57-1.89-.92-1.22-.42-2.06-.6-2.5-.53-.44.07-.77.4-.98,1.02-.25.73-.25,1.22.01,1.47.25.25,1.23.71,2.92,1.38,2,.79,3.23,1.48,3.69,2.08.46.6.48,1.52.05,2.78-.52,1.54-1.21,2.42-2.07,2.63-.85.21-2.47-.09-4.86-.9-2.14-.73-3.49-1.44-4.05-2.12-.55-.68-.6-1.7-.14-3.04l.13-.43,2.52.86-.07.25c-.28.81-.28,1.36,0,1.66.27.29,1.15.7,2.63,1.2,1.16.4,1.94.54,2.33.44.39-.1.72-.53.98-1.29.19-.56.2-.97.02-1.24-.18-.27-.67-.56-1.46-.87l-1.4-.56c-2.12-.85-3.42-1.57-3.88-2.18-.46-.61-.47-1.57-.02-2.9.46-1.35,1.13-2.13,2.01-2.34.88-.2,2.4.06,4.56.8,2.05.7,3.36,1.38,3.94,2.03.57.66.65,1.59.24,2.79l-.15.44Z"/>
  <polygon class="cls-5" points="250.81 219.38 249.33 222.17 255.31 225.33 254.51 226.85 248.53 223.69 246.91 226.75 253.27 230.11 252.35 231.84 243.58 227.2 249.31 216.37 258.03 220.99 257.11 222.71 250.81 219.38"/>
  <polygon class="cls-6" points="250.81 219.38 249.33 222.17 255.31 225.33 254.51 226.85 248.53 223.69 246.91 226.75 253.27 230.11 252.35 231.84 243.58 227.2 249.31 216.37 258.03 220.99 257.11 222.71 250.81 219.38"/>
  <path class="cls-5" d="M263.77,234.8l2.18,1.66-.26.34c-1.03,1.36-1.99,2.01-2.88,1.97-.88-.05-2.33-.83-4.32-2.35-2.26-1.72-3.42-3.1-3.46-4.12-.04-1.03.98-2.9,3.06-5.64,1.23-1.61,2.38-2.4,3.47-2.37,1.09.03,2.76.9,5.01,2.61,1.64,1.24,2.57,2.28,2.8,3.12.23.83-.12,1.87-1.07,3.11l-.16.23-2.18-1.66.19-.25c.49-.64.66-1.15.51-1.55-.15-.39-.72-.97-1.73-1.74-1.35-1.03-2.27-1.5-2.75-1.43-.49.08-1.26.81-2.31,2.19-1.42,1.87-2.14,3.07-2.16,3.59-.02.53.64,1.3,1.97,2.32,1.08.82,1.86,1.26,2.32,1.32.47.05.95-.24,1.44-.89l.32-.45Z"/>
  <path class="cls-6" d="M263.77,234.8l2.18,1.66-.26.34c-1.03,1.36-1.99,2.01-2.88,1.97-.88-.05-2.33-.83-4.32-2.35-2.26-1.72-3.42-3.1-3.46-4.12-.04-1.03.98-2.9,3.06-5.64,1.23-1.61,2.38-2.4,3.47-2.37,1.09.03,2.76.9,5.01,2.61,1.64,1.24,2.57,2.28,2.8,3.12.23.83-.12,1.87-1.07,3.11l-.16.23-2.18-1.66.19-.25c.49-.64.66-1.15.51-1.55-.15-.39-.72-.97-1.73-1.74-1.35-1.03-2.27-1.5-2.75-1.43-.49.08-1.26.81-2.31,2.19-1.42,1.87-2.14,3.07-2.16,3.59-.02.53.64,1.3,1.97,2.32,1.08.82,1.86,1.26,2.32,1.32.47.05.95-.24,1.44-.89l.32-.45Z"/>
  <path class="cls-5" d="M279.79,239.67l1.84,2.02-6.03,5.48c-1.26,1.15-2.36,1.62-3.28,1.42-.93-.2-2.19-1.18-3.79-2.94-1.69-1.86-2.61-3.26-2.75-4.18-.14-.93.41-1.96,1.65-3.09l6.13-5.57,1.84,2.02-6.13,5.57c-.67.61-.97,1.13-.89,1.58.08.44.59,1.19,1.54,2.23.97,1.07,1.67,1.66,2.1,1.76.43.11,1-.16,1.71-.8l6.06-5.51Z"/>
  <path class="cls-6" d="M279.79,239.67l1.84,2.02-6.03,5.48c-1.26,1.15-2.36,1.62-3.28,1.42-.93-.2-2.19-1.18-3.79-2.94-1.69-1.86-2.61-3.26-2.75-4.18-.14-.93.41-1.96,1.65-3.09l6.13-5.57,1.84,2.02-6.13,5.57c-.67.61-.97,1.13-.89,1.58.08.44.59,1.19,1.54,2.23.97,1.07,1.67,1.66,2.1,1.76.43.11,1-.16,1.71-.8l6.06-5.51Z"/>
  <path class="cls-5" d="M273.98,251.86l10.42-6.44,3.74,6.05c.93,1.5,1.35,2.68,1.26,3.52-.09.84-.71,1.62-1.88,2.34-1.06.65-1.86.95-2.43.91-.56-.04-1.19-.46-1.88-1.25l-.07.04c.77,1.4.52,2.5-.76,3.29l-2.3,1.42-1.44-2.33,1.9-1.17c1.08-.66,1.23-1.62.46-2.86l-2.07-3.35-3.51,2.17-1.44-2.33ZM280.6,250.99l2.06,3.34c.49.8.94,1.25,1.34,1.36.4.11.97-.06,1.7-.51.74-.46,1.15-.87,1.23-1.23.08-.36-.12-.92-.59-1.68l-2.17-3.5-3.58,2.21Z"/>
  <path class="cls-6" d="M273.98,251.86l10.42-6.44,3.74,6.05c.93,1.5,1.35,2.68,1.26,3.52-.09.84-.71,1.62-1.88,2.34-1.06.65-1.86.95-2.43.91-.56-.04-1.19-.46-1.88-1.25l-.07.04c.77,1.4.52,2.5-.76,3.29l-2.3,1.42-1.44-2.33,1.9-1.17c1.08-.66,1.23-1.62.46-2.86l-2.07-3.35-3.51,2.17-1.44-2.33ZM280.6,250.99l2.06,3.34c.49.8.94,1.25,1.34,1.36.4.11.97-.06,1.7-.51.74-.46,1.15-.87,1.23-1.23.08-.36-.12-.92-.59-1.68l-2.17-3.5-3.58,2.21Z"/>
  <rect class="cls-5" x="280.97" y="261.3" width="12.25" height="2.73" transform="translate(-83.08 142.72) rotate(-24.5)"/>
  <rect class="cls-6" x="280.97" y="261.3" width="12.25" height="2.73" transform="translate(-83.08 142.72) rotate(-24.5)"/>
  <polygon class="cls-5" points="294.67 271.15 285.01 274.33 284.15 271.73 293.81 268.55 292.52 264.6 294.5 263.95 297.99 274.6 296.01 275.25 294.67 271.15"/>
  <polygon class="cls-6" points="294.67 271.15 285.01 274.33 284.15 271.73 293.81 268.55 292.52 264.6 294.5 263.95 297.99 274.6 296.01 275.25 294.67 271.15"/>
  <path class="cls-5" d="M300.62,289.59l-8.32-4.09-4.62.73-.43-2.7,4.62-.73,6.67-6.32.5,3.13-2.85,2.65c-.16.15-.46.4-.89.76l-.44.38-.44.37v.07s.55.22.55.22l.54.23c.48.19.84.34,1.08.46l3.54,1.66.5,3.17Z"/>
  <path class="cls-6" d="M300.62,289.59l-8.32-4.09-4.62.73-.43-2.7,4.62-.73,6.67-6.32.5,3.13-2.85,2.65c-.16.15-.46.4-.89.76l-.44.38-.44.37v.07s.55.22.55.22l.54.23c.48.19.84.34,1.08.46l3.54,1.66.5,3.17Z"/>
  <path class="cls-5" d="M294.58,304.5l-.59,6.32-2.43-.18c-1.76-.16-2.86-.66-3.3-1.49-.44-.83-.53-2.6-.27-5.3.23-2.48.72-4.09,1.48-4.84.76-.74,2.18-1.02,4.27-.82,2.67.25,4.34.57,5.01.96.82.48,1.34,1.14,1.56,1.98.22.84.24,2.23.06,4.18-.24,2.55-.62,4.18-1.16,4.88-.53.7-1.59.97-3.17.83l.26-2.75c.8.02,1.32-.13,1.55-.48.23-.34.41-1.24.55-2.69.15-1.58.07-2.59-.22-3.05-.29-.46-1.06-.74-2.29-.86l-1.22-.12-1.57-.12c-1.21-.11-2,.02-2.37.42-.37.39-.62,1.35-.77,2.88-.14,1.48-.09,2.44.15,2.87.24.43.88.69,1.93.79l.5.06.34-3.61,1.71.16Z"/>
  <path class="cls-6" d="M294.58,304.5l-.59,6.32-2.43-.18c-1.76-.16-2.86-.66-3.3-1.49-.44-.83-.53-2.6-.27-5.3.23-2.48.72-4.09,1.48-4.84.76-.74,2.18-1.02,4.27-.82,2.67.25,4.34.57,5.01.96.82.48,1.34,1.14,1.56,1.98.22.84.24,2.23.06,4.18-.24,2.55-.62,4.18-1.16,4.88-.53.7-1.59.97-3.17.83l.26-2.75c.8.02,1.32-.13,1.55-.48.23-.34.41-1.24.55-2.69.15-1.58.07-2.59-.22-3.05-.29-.46-1.06-.74-2.29-.86l-1.22-.12-1.57-.12c-1.21-.11-2,.02-2.37.42-.37.39-.62,1.35-.77,2.88-.14,1.48-.09,2.44.15,2.87.24.43.88.69,1.93.79l.5.06.34-3.61,1.71.16Z"/>
  <path class="cls-5" d="M296.36,324.3l-.75,2.63-7.84-2.24c-1.64-.47-2.62-1.15-2.93-2.04-.32-.89-.15-2.48.51-4.77.69-2.42,1.4-3.93,2.11-4.54.72-.61,1.88-.68,3.49-.22l7.97,2.28-.76,2.63-7.96-2.28c-.87-.25-1.47-.22-1.81.08-.34.3-.7,1.12-1.09,2.48-.4,1.39-.53,2.29-.4,2.72.13.42.66.76,1.58,1.03l7.88,2.26Z"/>
  <path class="cls-6" d="M296.36,324.3l-.75,2.63-7.84-2.24c-1.64-.47-2.62-1.15-2.93-2.04-.32-.89-.15-2.48.51-4.77.69-2.42,1.4-3.93,2.11-4.54.72-.61,1.88-.68,3.49-.22l7.97,2.28-.76,2.63-7.96-2.28c-.87-.25-1.47-.22-1.81.08-.34.3-.7,1.12-1.09,2.48-.4,1.39-.53,2.29-.4,2.72.13.42.66.76,1.58,1.03l7.88,2.26Z"/>
  <path class="cls-5" d="M281.15,334.66l2.76-5.57-1.71-1.85,1.29-2.59,8.85,9.73-1.82,3.68-13.14-1.08,1.26-2.55,2.52.22ZM282.97,334.85l6.83.6-4.63-5.03-2.19,4.43Z"/>
  <path class="cls-6" d="M281.15,334.66l2.76-5.57-1.71-1.85,1.29-2.59,8.85,9.73-1.82,3.68-13.14-1.08,1.26-2.55,2.52.22ZM282.97,334.85l6.83.6-4.63-5.03-2.19,4.43Z"/>
  <path class="cls-5" d="M276.7,337.89l9.83,7.31-4.24,5.7c-1.06,1.42-1.99,2.24-2.81,2.47-.82.23-1.77-.07-2.87-.88-.99-.74-1.57-1.38-1.74-1.92-.17-.54-.01-1.28.47-2.21l-.06-.05c-1.02,1.23-2.14,1.4-3.34.5l-2.17-1.61,1.63-2.2,1.79,1.34c1.01.75,1.96.54,2.83-.63l2.35-3.16-3.31-2.47,1.63-2.19ZM279.95,343.71l-2.34,3.15c-.56.75-.82,1.33-.77,1.75.04.42.41.88,1.1,1.39.7.52,1.23.75,1.59.69.36-.06.81-.45,1.34-1.17l2.46-3.3-3.38-2.51Z"/>
  <path class="cls-6" d="M276.7,337.89l9.83,7.31-4.24,5.7c-1.06,1.42-1.99,2.24-2.81,2.47-.82.23-1.77-.07-2.87-.88-.99-.74-1.57-1.38-1.74-1.92-.17-.54-.01-1.28.47-2.21l-.06-.05c-1.02,1.23-2.14,1.4-3.34.5l-2.17-1.61,1.63-2.2,1.79,1.34c1.01.75,1.96.54,2.83-.63l2.35-3.16-3.31-2.47,1.63-2.19ZM279.95,343.71l-2.34,3.15c-.56.75-.82,1.33-.77,1.75.04.42.41.88,1.1,1.39.7.52,1.23.75,1.59.69.36-.06.81-.45,1.34-1.17l2.46-3.3-3.38-2.51Z"/>
  <path class="cls-5" d="M268.29,348.86l8.31,9.01-5.21,4.8c-1.48,1.36-2.77,2.05-3.87,2.04-1.1,0-2.29-.69-3.55-2.07-2.07-2.25-3.17-3.91-3.28-4.99-.11-1.08.67-2.39,2.34-3.93l5.27-4.86ZM267.61,352.15l-2.87,2.64c-.96.89-1.41,1.65-1.35,2.28.07.64.69,1.6,1.88,2.88,1.23,1.33,2.13,2.06,2.72,2.18.59.13,1.35-.24,2.28-1.11l2.99-2.76-5.65-6.13Z"/>
  <path class="cls-6" d="M268.29,348.86l8.31,9.01-5.21,4.8c-1.48,1.36-2.77,2.05-3.87,2.04-1.1,0-2.29-.69-3.55-2.07-2.07-2.25-3.17-3.91-3.28-4.99-.11-1.08.67-2.39,2.34-3.93l5.27-4.86ZM267.61,352.15l-2.87,2.64c-.96.89-1.41,1.65-1.35,2.28.07.64.69,1.6,1.88,2.88,1.23,1.33,2.13,2.06,2.72,2.18.59.13,1.35-.24,2.28-1.11l2.99-2.76-5.65-6.13Z"/>
  <path class="cls-5" d="M247.1,369.63l-2.42,1.3-.2-.37c-.8-1.5-1-2.65-.59-3.43.41-.79,1.72-1.77,3.93-2.95,2.51-1.34,4.24-1.82,5.19-1.43.95.39,2.24,2.1,3.85,5.12.95,1.79,1.19,3.17.71,4.15-.48.98-1.97,2.14-4.46,3.47-1.81.97-3.15,1.38-4,1.25-.86-.14-1.65-.89-2.38-2.26l-.14-.24,2.42-1.29.15.28c.38.71.78,1.08,1.2,1.11.42.03,1.19-.25,2.31-.85,1.49-.8,2.31-1.44,2.45-1.91.13-.47-.21-1.48-1.03-3.01-1.11-2.07-1.9-3.22-2.37-3.46-.47-.24-1.45.04-2.93.83-1.2.64-1.92,1.16-2.16,1.57-.24.4-.18.96.21,1.68l.28.47Z"/>
  <path class="cls-6" d="M247.1,369.63l-2.42,1.3-.2-.37c-.8-1.5-1-2.65-.59-3.43.41-.79,1.72-1.77,3.93-2.95,2.51-1.34,4.24-1.82,5.19-1.43.95.39,2.24,2.1,3.85,5.12.95,1.79,1.19,3.17.71,4.15-.48.98-1.97,2.14-4.46,3.47-1.81.97-3.15,1.38-4,1.25-.86-.14-1.65-.89-2.38-2.26l-.14-.24,2.42-1.29.15.28c.38.71.78,1.08,1.2,1.11.42.03,1.19-.25,2.31-.85,1.49-.8,2.31-1.44,2.45-1.91.13-.47-.21-1.48-1.03-3.01-1.11-2.07-1.9-3.22-2.37-3.46-.47-.24-1.45.04-2.93.83-1.2.64-1.92,1.16-2.16,1.57-.24.4-.18.96.21,1.68l.28.47Z"/>
  <path class="cls-5" d="M239.24,381.27c-2.49.81-4.21.98-5.15.51-.95-.47-1.81-1.92-2.61-4.37-.87-2.67-1.05-4.47-.56-5.4.49-.93,2.12-1.84,4.89-2.74,2.49-.81,4.21-.99,5.16-.54.95.45,1.81,1.84,2.57,4.17.9,2.78,1.11,4.64.63,5.58-.49.94-2.13,1.87-4.93,2.78M238.83,379.31c1.75-.57,2.71-1.09,2.88-1.57.17-.48-.11-1.84-.85-4.1-.54-1.67-1.04-2.62-1.5-2.85-.46-.23-1.53-.07-3.21.48-1.61.53-2.52,1.03-2.71,1.52-.2.49.02,1.71.65,3.65.64,1.95,1.16,3.06,1.58,3.31.42.26,1.47.11,3.16-.44"/>
  <path class="cls-6" d="M239.24,381.27c-2.49.81-4.21.98-5.15.51-.95-.47-1.81-1.92-2.61-4.37-.87-2.67-1.05-4.47-.56-5.4.49-.93,2.12-1.84,4.89-2.74,2.49-.81,4.21-.99,5.16-.54.95.45,1.81,1.84,2.57,4.17.9,2.78,1.11,4.64.63,5.58-.49.94-2.13,1.87-4.93,2.78ZM238.83,379.31c1.75-.57,2.71-1.09,2.88-1.57.17-.48-.11-1.84-.85-4.1-.54-1.67-1.04-2.62-1.5-2.85-.46-.23-1.53-.07-3.21.48-1.61.53-2.52,1.03-2.71,1.52-.2.49.02,1.71.65,3.65.64,1.95,1.16,3.06,1.58,3.31.42.26,1.47.11,3.16-.44Z"/>
  <rect class="cls-5" x="225.58" y="371.77" width="2.42" height="2.21" transform="translate(-66.81 49.97) rotate(-10.97)"/>
  <rect class="cls-6" x="225.58" y="371.77" width="2.42" height="2.21" transform="translate(-66.81 49.97) rotate(-10.97)"/>
  <path class="cls-5" d="M220.85,374.91l-.27-2.12c-.18-1.42.44-2.22,1.88-2.41.08,0,.23-.02.44-.04l.12.95c-.77.1-1.12.42-1.05.97l.05.27.94-.12.28,2.19-2.4.31Z"/>
  <path class="cls-6" d="M220.85,374.91l-.27-2.12c-.18-1.42.44-2.22,1.88-2.41.08,0,.23-.02.44-.04l.12.95c-.77.1-1.12.42-1.05.97l.05.27.94-.12.28,2.19-2.4.31Z"/>
  <polygon class="cls-5" points="213.79 385.43 213.76 375.26 207 375.29 207 373.2 216.49 373.17 216.53 385.43 213.79 385.43"/>
  <polygon class="cls-6" points="213.79 385.43 213.76 375.26 207 375.29 207 373.2 216.49 373.17 216.53 385.43 213.79 385.43"/>
  <polygon class="cls-5" points="198.52 382.29 199.97 372.22 202.68 372.61 201.23 382.68 205.34 383.27 205.05 385.34 193.96 383.73 194.25 381.67 198.52 382.29"/>
  <polygon class="cls-6" points="198.52 382.29 199.97 372.22 202.68 372.61 201.23 382.68 205.34 383.27 205.05 385.34 193.96 383.73 194.25 381.67 198.52 382.29"/>
  <path class="cls-5" d="M194.43,371.34l-3.77,11.66-6.74-2.18c-1.91-.62-3.14-1.41-3.68-2.37-.54-.96-.52-2.33.06-4.11.94-2.91,1.85-4.68,2.74-5.31.88-.63,2.41-.59,4.57.1l6.82,2.2ZM191.22,372.36l-3.71-1.2c-1.24-.4-2.13-.42-2.65-.05-.52.37-1.05,1.38-1.59,3.05-.56,1.72-.74,2.87-.57,3.44.18.57.88,1.05,2.09,1.45l3.87,1.25,2.56-7.94Z"/>
  <path class="cls-6" d="M194.43,371.34l-3.77,11.66-6.74-2.18c-1.91-.62-3.14-1.41-3.68-2.37-.54-.96-.52-2.33.06-4.11.94-2.91,1.85-4.68,2.74-5.31.88-.63,2.41-.59,4.57.1l6.82,2.2ZM191.22,372.36l-3.71-1.2c-1.24-.4-2.13-.42-2.65-.05-.52.37-1.05,1.38-1.59,3.05-.56,1.72-.74,2.87-.57,3.44.18.57.88,1.05,2.09,1.45l3.87,1.25,2.56-7.94Z"/>
  <rect class="cls-5" x="178.23" y="365.78" width="2.21" height="2.42" transform="translate(-229.06 374.44) rotate(-65)"/>
  <rect class="cls-6" x="178.23" y="365.78" width="2.21" height="2.42" transform="translate(-229.06 374.44) rotate(-65)"/>
  <rect class="cls-2" width="1170" height="595.28"/>
</svg>